<svg data-name="Layer 1" xmlns="http://www.w3.org/2000/svg" viewBox="0 0 1500 900"><title>topo</title><path d="M270.12 847.11a62.41 62.41 0 0 1-17.83-3.86q-75.87-28.9-107.09-103.93c-4.48-10.81-7.38-22.27-11.22-33.35a102.83 102.83 0 0 0-6-14.65c-12.29-23.15-31.35-35.61-57.85-35.92a58.72 58.72 0 0 1-27.49-7.4A115.23 115.23 0 0 0 0 634.71v1.83a109.46 109.46 0 0 1 39.7 12.16 73.91 73.91 0 0 0 33.66 8.76c16.05.34 29.89 6.53 41.1 18.12a75.54 75.54 0 0 1 17.54 30.2c2.3 7.24 4.44 14.55 6.88 21.75q28.3 83.82 110.39 116.64A62.77 62.77 0 0 0 270.4 849a46.78 46.78 0 0 1 8.8 1.34A54.29 54.29 0 0 1 321.55 900h1.88a40 40 0 0 0-.48-4.81c-4.59-27.19-25.25-46.06-52.83-48.08zm-17.41 31.13c-23.37-7.2-46.84-14.1-70.09-21.68-33.58-10.94-54.9-33.78-64-67.85-3.58-13.39-6.84-26.87-10.19-40.32-2.8-11.26-6.39-22.26-12.14-32.35a51.17 51.17 0 0 0-9-11.65 35.39 35.39 0 0 0-24.31-9.71 42.06 42.06 0 0 1-22.52-6.61A66.75 66.75 0 0 0 0 677.1v1.77c13.16-.74 26.08 2.7 38.69 10.43a48 48 0 0 0 23.85 7.27c14.45.54 25.1 7.47 32 20.05a122.65 122.65 0 0 1 11.09 28.56c3.77 14.71 7.26 29.49 11.19 44.16 9.31 34.76 31.11 58 65.41 69.12 23.1 7.49 46.42 14.31 69.61 21.53 11.94 3.71 21.06 10.68 26.76 20h2.17c-5.89-10.19-15.57-17.9-28.06-21.75zm66.17-42.56a31.38 31.38 0 0 0-15.35-3.25 176.8 176.8 0 0 1-46.64-5.24c-45.82-11.53-76.35-39.55-90.74-84.79-4.91-15.43-9.35-31-14.58-46.32-10.89-31.9-40.81-58.93-80.71-58.57a81.89 81.89 0 0 1-13.28-1.35c-9.58-1.5-18.28-5.45-26.86-9.82a84.29 84.29 0 0 0-30.7-9v1.87A84.38 84.38 0 0 1 31.73 629a92 92 0 0 0 42.32 10.63 73 73 0 0 1 18.55 2.68c29.51 8.42 48.24 28.26 58 56.86 5.06 14.85 9.4 29.94 14 44.94A123.14 123.14 0 0 0 201 801c20.35 18.09 44.63 27.11 71.11 31.2a226.2 226.2 0 0 0 32.6 2.14c16.78.15 29 12.39 29.5 29.1q.52 18.28 1 36.57h1.91q-.49-18.41-1-36.82c-.37-12.51-6.12-21.73-17.24-27.5zm458.79-617.8a34 34 0 0 0 25.33 2.88c11.91-3.17 20.26-11 25.39-21.71 8.55-17.86-4.83-38-25-38a21.6 21.6 0 0 0-12 2.93 195.15 195.15 0 0 0-17.09 10.72c-15.13 11.12-13.25 34.44 3.37 43.18zm-2.32-41.58a127.36 127.36 0 0 1 17.12-10.73c16.7-8.64 36.41 3.59 37.08 22.55-1.08 3.74-1.47 7.89-3.36 11.16-6.36 11-15.17 19-28.46 20.54a31.22 31.22 0 0 1-20.8-4.57 23.65 23.65 0 0 1-1.58-38.95zm-39.87-22.46c-16.79 11.21-24.58 27.19-22 47.22 2.51 19.57 13.8 33 32.26 39.81 13.14 4.87 26.43 9.3 39.68 13.85 10.23 3.51 20.8 5 34.26 5.28 3.58-.43 9.86-.79 16-2 24.27-4.83 44.49-16.5 58.63-37.26 13-19.06 19-40.06 13.89-63.14a66.67 66.67 0 0 0-71.79-52.3c-20.84 1.9-40.12 9-57.76 20.43-14.45 9.27-28.89 18.58-43.17 28.12zm100.62-46.71c2.12-.26 4.28-.25 6.42-.36 33.17 0 61.47 25.09 64.94 58 2.61 24.77-5.77 46.09-22.19 64.19-15.44 17-35.26 25.7-57.84 28.42-15.39 1.86-30.23-.42-44.76-5.57-12.13-4.3-24.34-8.35-36.44-12.73-31.22-11.29-41.63-49.72-20.1-74.51a52.7 52.7 0 0 1 10.45-9c14.28-9.56 28.72-18.87 43.15-28.2a132.3 132.3 0 0 1 56.37-20.24zm-72.58 124.68c9.38 3.54 19.19 5.15 32.74 5.19 24.1-.6 47.06-11.23 64.68-32.58 9.48-11.48 12.22-24.9 8.38-39.38-6.42-24.2-30.41-37.86-55.12-31.47a89.43 89.43 0 0 0-26.78 11.7c-10.83 7.08-21.72 14.09-32.34 21.49-11.87 8.27-17.43 19.91-15.81 34.36 1.73 15.09 10.13 25.36 24.25 30.69zm-7.09-63.66c10.66-7.33 21.52-14.38 32.35-21.45a87 87 0 0 1 25.4-11.14c26.25-7 50.52 8.89 54.44 35.8 1.72 11.79-1.63 22.44-9 31.69a86 86 0 0 1-66.84 32 80.91 80.91 0 0 1-28.26-4.94c-13.71-5-21.86-14.92-23.42-29.46-1.45-13.65 4-24.7 15.33-32.49zM.66 803.46c-.22-.15-.44-.29-.66-.42v2.34a6.08 6.08 0 0 1 2 6 24.09 24.09 0 0 1-1.14 3.25c-.29.76-.6 1.51-.91 2.25v4.6a78.49 78.49 0 0 0 3.32-8c1.55-4.2.52-7.81-2.61-10.02zM210.54 877c-10.71-2.72-21.72-4.28-32.59-6.41A83.44 83.44 0 0 0 96.81 900h2.4c17.32-20.6 44.59-32.24 72.71-28.35 11.94 1.65 23.83 3.88 35.58 6.55a88.87 88.87 0 0 1 19.08 6.8 66.79 66.79 0 0 1 20 15h2.57c-9.73-11.42-22.75-19-38.61-23zm-102.41-63.18c-6-25.44-12.75-50.74-19.59-76-4-14.59-14-23.29-28.73-26.5-5.51-1.2-11-2.25-16.6-3.24a43.54 43.54 0 0 1-19.32-8.56c-7.44-5.73-15.47-8.13-23.89-7.4v2c8.45-.72 16.49 1.88 24.1 8a35.19 35.19 0 0 0 15.66 7.18c6.35 1.21 12.68 2.53 19 3.82 15 3.05 24.51 12 28.39 26.65 6.39 24.17 12.61 48.38 18.8 72.6a59 59 0 0 1 1.8 21.17c-1.64 15.14-8.2 27.72-19 38.38A87.63 87.63 0 0 0 69.4 900h2.24a92 92 0 0 1 19.46-27.89c16.24-16.23 22.34-35.91 17.03-58.29zM151 900h7.45a55.86 55.86 0 0 1 20.55-.14l.67.14h8.87c-1-.28-1.91-.55-2.87-.82A59.71 59.71 0 0 0 151 900zm-64.59-80.65c-1.57-12.33-3.71-24.58-5.51-36.89C75.15 743 42.46 714.57 2.56 715c-.85 0-1.71 0-2.56.08v1.69c36.55-1.65 70.28 23.56 77.82 59.86 2.69 13 4 26.2 6.16 39.29a65.35 65.35 0 0 1 .41 21.29 57.86 57.86 0 0 1-17.18 32.42A56.75 56.75 0 0 0 50.85 900H53a62.53 62.53 0 0 1 17.26-30.9c13.63-13.76 18.57-30.72 16.15-49.75zm104.23 66.85a79.55 79.55 0 0 0-25.14-1.94 78.35 78.35 0 0 0-41 15.73h3.23A76.1 76.1 0 0 1 186 887.24c10.07 1.92 20 4.55 30 7a46 46 0 0 1 13.7 5.76h3.43a46 46 0 0 0-16.37-7.57c-8.76-2.12-17.42-4.15-26.12-6.22zm-171.58-104C12.86 778 6.39 777 0 779.08v2c6.09-2.25 12.27-1.28 18.09 2.76 7.15 5 10 12.09 8.75 20.81-.48 3.29-1 6.58-1.65 9.83C21.75 831.33 13.4 843.82 0 851.72V854c13.77-7.91 23.52-21.37 26.84-38.06.68-3.42 1.12-6.89 1.71-10.33 1.68-9.8-1.34-17.85-9.49-23.42zm49.6 44.47q.66-25.5 0-51c-.4-14.59-7.46-25.66-21-31.75A102.32 102.32 0 0 0 0 735.15v1.8a105.75 105.75 0 0 1 44.57 7.61c14.25 5.62 22.21 17.46 22.24 32.71 0 15.86.08 31.71 0 47.57-.08 14.65-5.86 26.69-17.77 35.43-12.52 9.19-18.95 21.37-19.71 36.66l-.16 3.07h1.91c.05-1.08.11-2.16.16-3.24.74-14.58 7-26.2 18.93-34.92s18.12-20.68 18.49-35.19zm164.51-703.61a62.38 62.38 0 0 1 12.6 6.73c4.17 2.74 8.49 4.48 13.46 4.17a19.57 19.57 0 0 0 17.59-26.24 44.92 44.92 0 0 1-2.23-14.59c-.36-23.83-.48-47.67-1.31-71.48-.25-7.22-.38-14.44-.42-21.65h-1.7c.11 30.82 1.1 61.64 1.57 92.46.09 5.66.57 11.08 2.52 16.54 3 8.31-1.25 17.53-9.21 21.29-6.54 3.08-12.74 2.22-18.77-1.81-3.82-2.55-7.79-5.16-12.07-6.69C196.78 108 165.91 84.51 142 51.43A498.21 498.21 0 0 0 99.33 0h-2.7a528.25 528.25 0 0 1 45.17 54.27q35.12 48.41 91.37 68.79zM351 843.5a42.58 42.58 0 0 0-1.51-10.75c-4.66-15.87-19.7-25-36.65-22.61-26.57 3.74-52.53 1.15-77.59-8.46-28.64-11-47.18-31.54-55.73-61-3.23-11.12-6-22.36-9-33.53a125.85 125.85 0 0 0-28.86-52.58c-17.51-19.18-39-29.57-65.18-30a108.62 108.62 0 0 1-19.65-2.36c-11.52-2.31-21.64-7.84-31.32-14.43A60.3 60.3 0 0 0 0 597.56v2c9.11 1.39 17.93 5.18 26.5 11.26 15 10.67 31.94 15.63 50.32 15.8 22.2.21 41.36 8.1 57.42 23.31a122.11 122.11 0 0 1 34.34 57.7c3 11.17 5.87 22.4 9 33.53 7.67 27 24 46.87 49.27 59.1 14.41 7 29.89 10.54 45.77 12.37a169.57 169.57 0 0 0 41.57-.73c17.15-2.24 31.86 9 34.46 26.14a56.84 56.84 0 0 1 .48 9.4q-.42 26.33 1.07 52.57h2.19l-.15-2.4c-1.07-18-.78-36.07-1.24-54.11zM187.5 70.11c9.37 13.77 25.89 19.19 41.12 13.89s24.9-20.22 23.69-36.9c-.39-5.45-.7-10.91-1-16.37q-1-15.37-1.21-30.73h-1.8c0 1.67.08 3.35.14 5 .55 14.4 1.35 28.79 2.09 43.19 1.25 24.36-22.25 42.08-44.91 33.82-7.6-2.77-13.16-7.94-17.67-14.6A536.63 536.63 0 0 0 134 0h-2.67q5.28 5.57 10.43 11.3a562.34 562.34 0 0 1 45.74 58.81zm16.82-46.33c13.88-1.51 24-10.92 26.85-23.78h-2.07a30 30 0 0 1-1.69 5c-4.63 10.4-13 16.25-24.38 17.06-10.92.78-19.78-3.65-26-12.69-2.11-3.07-4.12-6.2-6.1-9.35h-2.29c2.22 3.58 4.44 7.17 6.88 10.6 7.03 9.84 16.74 14.48 28.8 13.16zM57.3 43.49c21.28 22.3 40.76 46.13 59.88 70.25a147.39 147.39 0 0 0 61.66 46.14c14.4 5.78 27.75 13.6 39 24.31 12.67 12.1 25.43 24.29 36.66 37.68 21.27 25.37 46 46.16 75.63 60.84 32.16 15.93 64.55 31.41 96.84 47.08a23.52 23.52 0 0 0 2.76 1.11 20.37 20.37 0 0 0 26.11-13.4c2.15-7 .38-13.23-3.71-19.19-13.99-20.31-28.13-40.54-41.56-61.18Q339.58 128.27 333 0h-2a472 472 0 0 0 6.9 59.81A473.75 473.75 0 0 0 409 238.28c13.38 20.3 27.27 40.27 40.92 60.4.83 1.23 1.76 2.42 2.47 3.71a17.76 17.76 0 0 1 1.77 13.89c-3.2 11.4-15.08 17-26.05 12-9.48-4.33-18.82-9-28.18-13.53-25-12.22-50.06-24.15-74.78-36.83A203.17 203.17 0 0 1 262 227.34c-11.1-13.21-23.07-25.52-35.27-37.67a147.56 147.56 0 0 0-48-32 176.85 176.85 0 0 1-19.14-9.37c-17.25-9.76-31.2-23.26-43.37-38.8-21.67-27.64-44.38-54.35-69.13-79.31C36.74 19.76 26 9.76 15.07 0h-2.81Q35.59 20.87 57.3 43.49zm76.57 62.63a132.11 132.11 0 0 0 56.37 41.77A136.59 136.59 0 0 1 238 179.27c13.41 13.52 26.92 26.93 40.35 40.42A232.55 232.55 0 0 0 328.23 258a156 156 0 0 0 18.64 9.24 24.6 24.6 0 0 0 27.65-6.53c7-7.72 8.38-18.54 3.88-28.24-7.25-15.61-14.59-31.18-21.5-46.94A515.75 515.75 0 0 1 313.77 0h-1.88q.9 21.36 3.6 42.65A525.47 525.47 0 0 0 342 153.46c9.71 27.16 22.18 53.13 34.39 79.2 4.42 9.45 3.38 19.38-3.39 26.8-6.55 7.18-16.45 9.47-25.88 5.88a79.78 79.78 0 0 1-8.14-3.65 232.1 232.1 0 0 1-57-41.08c-14.14-14-28.26-27.93-42.17-42.11a138.68 138.68 0 0 0-49.28-32.5c-15.92-6.19-30.3-15-42.31-27.18-7.89-8-15.05-16.72-22.13-25.45A771.14 771.14 0 0 0 36.65 0h-2.87q20 17.54 38.78 36.43a825.3 825.3 0 0 1 61.31 69.69zM612.58 93.9L574.42 63a17.35 17.35 0 0 0-24.56 24.28c4.53 5.82 9.32 11.43 14 17.13 6.24 7.6 12.38 15.29 18.77 22.76a21.86 21.86 0 0 0 24.95 6.26 22.49 22.49 0 0 0 14.42-21c0-7.35-3-13.33-9.42-18.53zm1.75 32.81a20.34 20.34 0 0 1-29 .54 21.87 21.87 0 0 1-1.66-1.81q-15.92-19.36-31.82-38.74c-3.42-4.17-4.8-8.86-3.38-14.24a15.32 15.32 0 0 1 15-11.52 14.11 14.11 0 0 1 9.67 3.44q19.08 15.42 38.13 30.89c.89.72 1.79 1.44 2.61 2.23a20.59 20.59 0 0 1 .45 29.21zM659.66 5a19 19 0 0 0 11.24-5h-3a16.91 16.91 0 0 1-9.14 3.25A17 17 0 0 1 647.93 0h-3.17c4.33 3.67 9.19 5.68 14.9 5zM70 382.21A64.14 64.14 0 0 1 111.58 401q6.35 6.29 12.7 12.59a320.88 320.88 0 0 0 43.48 36.13 161.35 161.35 0 0 0 44.87 21.88c6.64 2 13.4 3.63 20.14 5.29 16.68 4.11 31.85 11.83 47.18 19.29 27.36 13.33 50.14 31.9 67.67 56.85a31.65 31.65 0 0 0 13.31 10.84c12.59 5.59 26.25 3.11 36.67-6.84 10.94-10.46 23.88-16.82 38.93-17.77 35.16-2.21 64.37 10.23 86.31 37.88 24.49 30.86 44.35 64.64 60.47 100.61a47.64 47.64 0 0 1 2.91 31.95c-4 16-.56 30.6 10.43 43 8.75 9.91 12.85 21.34 12.92 34.49a43.73 43.73 0 0 0 35 43 48.44 48.44 0 0 1 23.87 12.4c7.34 6.93 15.15 13.38 22.32 20.48 10.47 10.37 27 8.83 34.75-4.33 1.43-2.42 3.07-4.71 4.69-7a129 129 0 0 1 53.59-44.46c18.28-8.25 37.5-11.47 57.46-11.28a218.42 218.42 0 0 0 66.48-9.73c29.13-8.92 58.82-10.3 88.83-5.09a31.57 31.57 0 0 0 5.92.5A16 16 0 0 0 1018 762.5c-.78-4.13-3.14-7.19-6-10.06-13.86-14-27.79-27.93-41.5-42.07-14.51-15-21.77-33-21.29-53.92a268.78 268.78 0 0 1 2.24-29.2 291.35 291.35 0 0 1 39.29-112.63c10.21-17 20.68-33.93 30.35-51.27 21.16-37.91 22.62-76.86 2.49-115.37-13.78-26.38-29.18-52-44.84-77.29-12.45-20.14-31.49-30.11-55.26-30.67-11.7-.27-22.49 3-32.8 8.35-34 17.78-69.94 23.46-107.76 16.72-18.65-3.32-36.54-9.48-54-16.44-27.51-11-42.53-41-36.14-69.83 3.85-17.41 13.53-30.74 28.66-40 16.22-9.95 32.61-19.6 48.84-29.54 26.94-16.48 40.85-40.6 42-72.19.44-12.36.81-24.74 1.35-37.1h-1.69c-.54 13.15-1 26.3-1.72 39.44a89.31 89.31 0 0 1-2.59 17.62c-5.58 21.5-18 38.11-36.94 49.71-16.78 10.29-33.81 20.19-50.51 30.61-20.27 12.65-30.7 31.33-30.73 55.1 0 27.81 17.88 51.51 44.33 60.25q13.19 4.36 26.4 8.62a167.73 167.73 0 0 0 82.3 5.66 165.49 165.49 0 0 0 49-16.9c8.58-4.58 17.61-7.75 27.35-8.11 26.1-1 46.3 9.71 59.77 32 14.28 23.66 28 47.67 41.77 71.63a113.38 113.38 0 0 1 15.06 53.48 116.17 116.17 0 0 1-16.43 64c-6.14 10.41-12.36 20.76-18.54 31.15-10.74 18.06-21.73 36-29.9 55.45-14.58 34.73-22.87 70.83-23.29 108.53-.23 20.83 7.56 38.75 22 53.7 7.26 7.49 14.64 14.85 22 22.28 7 7.07 14 14.06 20.89 21.25 4.63 4.84 5.45 10.92 2.67 16.51s-8.19 8.41-14.78 7.82c-1.48-.13-2.95-.42-4.42-.66a199.44 199.44 0 0 0-60.3-.82A196.92 196.92 0 0 0 903 785.7c-21.22 6.68-43.05 8.66-65.15 8.65q-56.5 0-96.1 40.31a122.29 122.29 0 0 0-17.85 23.17c-6.82 11.41-21.59 14.22-32.11 3.76-7.15-7.12-15-13.57-22.31-20.48a49.43 49.43 0 0 0-23.85-12.49c-20.82-4.56-34.07-20.89-34.26-42.22a51.48 51.48 0 0 0-13.32-34.87c-10.38-11.73-13.88-25.51-10.13-40.69 3-12.31 1.71-23.83-3.5-35.27a499.93 499.93 0 0 0-58-97c-21-27.45-48.76-41.38-83.39-41.46a65.65 65.65 0 0 0-46.77 18.49c-15 14.08-35.63 11.94-47.88-4.64A216.68 216.68 0 0 0 334 533.3c-14-15.29-30.56-27.24-49-36.65-18.16-9.24-36.29-18.43-56.43-22.71-24.51-5.2-46.5-15.83-66.63-30.66-17.53-12.92-33.26-27.79-48.53-43.21a65.07 65.07 0 0 0-42.28-19.65A72 72 0 0 1 40.57 371Q20.31 359.45 0 348v2.21q21.28 12.06 42.6 24a65.19 65.19 0 0 0 27.4 8zM617.81 74.66a81.82 81.82 0 0 0 131.93-64.17c0-3.52-.08-7-.24-10.49h-1.79c.56 9.35.42 18.7-1.83 28-13.78 57-79.71 80.65-126.54 45.38a342.25 342.25 0 0 1-55.74-52.8Q554.92 10.29 546.25 0h-2.5q8.89 10.51 17.73 21a353.1 353.1 0 0 0 56.33 53.66zM112 138.35c32.19 31 66.56 59.15 105 82.1a130.51 130.51 0 0 1 39.62 36.27A119.46 119.46 0 0 0 304.43 296a196.19 196.19 0 0 0 18.5 7.17c20.09 6.87 39.74 14.73 58 25.61a304.22 304.22 0 0 0 80 33.06c62.38 16.11 119.2 43.7 169.94 83.41 16 12.54 31.24 26.12 46.83 39.21a32.63 32.63 0 0 0 4.7 3.63 12.6 12.6 0 0 0 14.06-.58 13 13 0 0 0 5.2-13.52c-.85-4.25-3.76-6.81-7-9.25-37.51-28.35-74.89-56.86-112.53-85-27.87-20.86-55-42.46-79.34-67.5q-91.74-94.55-130.34-220.4c-7.91-26-13.07-52.59-18-79.24Q353.31 6.31 352.7 0h-1.88c.22 2.11.49 4.24.82 6.38q3.64 23.5 9 46.74Q404.21 244.86 560 365.21c43.85 33.95 88.4 67 132.62 100.45a35.93 35.93 0 0 1 4.58 3.8 10.88 10.88 0 0 1 1.49 12.88c-2.36 4.17-7.19 6.67-11.77 5.41a19 19 0 0 1-6.79-3.83c-9.78-8.18-19.43-16.51-29.1-24.81-54-46.33-115.23-79.06-184-97.5-23.08-6.18-45.72-13.44-67-24.5-2.79-1.45-5.65-2.79-8.33-4.42-23-14.07-47.6-24.55-73.13-33s-46.17-24-61.87-46a115.15 115.15 0 0 0-35.08-32.54C174 192.79 132.14 157.36 94 117.45c-21.11-22.14-41.39-45.1-62-67.76Q16 32.05 0 14.36v2.81Q28.56 48.72 57.09 80.3c17.86 19.78 35.71 39.56 54.91 58.05zM59.27 289.46a216.8 216.8 0 0 0 53.23 34.24 192.6 192.6 0 0 1 56 38c9.47 9.25 18.48 19 27.81 28.35a51.89 51.89 0 0 0 37.41 15.77 54.48 54.48 0 0 1 23 5.4q23.52 11.2 47.06 22.33c21.68 10.24 43.44 20.24 63.67 33.35 12.27 8 26.31 10.71 40.92 8.77a99.17 99.17 0 0 1 29.12.6c52.52 8.46 97.34 31.76 133 71.14 48.26 53.24 89.14 111.67 120.17 176.73 9.11 19.11 30.93 25.47 49.08 14.43 4.95-3 9.79-6.18 14.75-9.17a96.93 96.93 0 0 1 51.93-14.3 95.33 95.33 0 0 1 37.11 7.95c4.17 1.8 8.43 3 13 2.39 15.81-2.06 25-16.22 20.1-31.67-8.84-28.07-11.14-56.64-8-85.84a275.52 275.52 0 0 1 29.89-99.68c6.38-12.16 13.38-24 20.19-35.91s10.69-25.05 10.29-38.86c-1-32.38-16.26-56-45.52-70-14.81-7.13-30.66-8.77-47-7.84-25.84 1.48-51.15-1.94-76-9.19-20.3-5.93-39-15.27-57.4-25.6A286.05 286.05 0 0 1 608.62 236a262.82 262.82 0 0 0-28-33.49c-7.7-7.74-15.74-15.16-23.29-23-42.15-44.06-71.45-95.49-86.73-154.55A73.1 73.1 0 0 1 468.33 0h-1.47a74.47 74.47 0 0 0 2.44 28.24c18.08 64.33 51.13 119.54 99.7 165.43a301.27 301.27 0 0 1 39.1 44.82 287 287 0 0 0 44.2 48.87c19.83 17.58 42.15 31.39 65.51 43.65a232 232 0 0 0 76.09 24.53 242.14 242.14 0 0 0 46.53 1.83 90.07 90.07 0 0 1 43 8 75.19 75.19 0 0 1 43.47 74.45c-1 12-4.89 22.83-10.71 33.24-8.71 15.59-17.77 31-25.47 47.13-14 29.23-21.63 60.34-24.44 92.6-1.51 17.37-1.52 34.76 1.73 51.95 2 10.38 4.64 20.63 7.31 30.86 3.34 12.84-4.21 25.09-17.21 27.65-5.14 1-9.76-.36-14.44-2.24-31.08-12.43-61.12-10.12-90 6.7-4.72 2.74-9.39 5.6-13.9 8.66a32.16 32.16 0 0 1-47.84-14.06c-4.17-9.53-9-18.83-14-27.94A804.13 804.13 0 0 0 577 551.51c-34.87-39.62-78-64.92-129.71-75.4-12.15-2.46-24.35-4.43-36.92-2.52-17.14 2.62-32.59-2-47.14-11.25a319 319 0 0 0-31.23-17.4C307.67 433 283 421.68 258.55 410a60.54 60.54 0 0 0-25.33-6 49.59 49.59 0 0 1-35.2-14.9c-5.39-5.37-10.77-10.77-15.91-16.38a218 218 0 0 0-73.54-53 174.83 174.83 0 0 1-43.32-27.76c-9.54-8.19-19.1-16.4-28.09-25.19C24.66 254.5 12.33 242.1 0 229.69v3c19.12 19.59 38.58 38.82 59.27 56.77zm34.81 60.42a78.29 78.29 0 0 1 41.23 21.33c14.42 14.12 28.86 28.22 43.45 42.17a80.28 80.28 0 0 0 45.8 21.8 75.5 75.5 0 0 1 23.21 6.88c34 16.68 67.7 34 100.51 52.91a25.41 25.41 0 0 1 9.66 9.08c6.23 10.76 20.25 17.39 35.43 12.13 20.23-7 41.15-8.39 62.22-5.25 39.15 5.84 70.81 24.59 94.6 56.36q16.36 21.85 32.54 43.84A722 722 0 0 1 642.56 707 103.07 103.07 0 0 1 654 746.23c1.65 18.85 10.76 33.33 26.35 43.93a79.67 79.67 0 0 1 9.25 7.41c8.6 8 21.51 8.77 30.34 1.14 4.83-4.17 10.18-7.32 15.61-10.46a210.72 210.72 0 0 1 114.9-28.71 135.27 135.27 0 0 0 19.29-.82 56.77 56.77 0 0 0 20.26-6.31 48.62 48.62 0 0 0 18.48-69.08c-6-9.6-8.88-19.82-8.1-31.1.61-8.91 1-17.84 1.7-26.74a247.13 247.13 0 0 1 31.05-102.17q41.66-74.66 30.58-159.32c-2.07-16-13.21-28.72-28.82-32.32a42.8 42.8 0 0 0-13.26-.78c-12 1.08-22.57-1.61-31.57-10-10.54-9.82-21.82-11.1-34.58-4.19a28.12 28.12 0 0 1-11.75 3.56 215.47 215.47 0 0 1-53.36-3c-43-8-80.15-27.31-111.68-57.57-13.09-12.57-23.76-27.07-34-41.94a367.82 367.82 0 0 0-49.31-57.57A373.11 373.11 0 0 1 529.2 75.7c-11.93-20.7-21.33-42.55-29.58-64.92A21.83 21.83 0 0 1 498.44 0h-2a21.87 21.87 0 0 0 .83 9.61c2 6.13 4.51 12.07 6.87 18.07a370.5 370.5 0 0 0 78.49 122.43c6.65 6.92 13.67 13.46 20.43 20.28 17.53 17.69 32.71 37.29 46.7 57.85a199.68 199.68 0 0 0 28.51 33.64c45.24 42.31 98.75 62.68 160.78 60.45a41.57 41.57 0 0 0 19.4-5c9.45-5.26 20.32-3.68 28.65 3.43 2 1.72 3.9 3.61 6 5.15 8.78 6.36 18.67 7.76 29.26 6.74a35.74 35.74 0 0 1 39.27 30.67 246.86 246.86 0 0 1-1.27 78.55 255.08 255.08 0 0 1-29.59 81.65c-11.29 20-19.17 41.33-24.66 63.61-5.14 20.85-6.4 42.12-7.67 63.42-.74 12.48 1.84 23.87 8.7 34.44a41.9 41.9 0 0 1 6.86 27.94c-2.28 20.1-13 33.91-32.1 40.86-9.93 3.61-20.27 4.43-30.79 4a208.71 208.71 0 0 0-103.23 21.76c-10.35 5.12-20.61 10.42-29.55 18-8.1 6.89-19.65 5.84-27.59-1.57a77.41 77.41 0 0 0-9.28-7.37c-15-10.19-23.9-24.09-25.54-42.21a104.84 104.84 0 0 0-11.35-39.77c-13-24.8-26.82-49.09-42.91-72s-33-45.17-49.33-67.83c-37.18-51.45-103.79-71-160.69-52.18-12.62 4.19-24.15.06-31.58-11a33.87 33.87 0 0 0-11.48-10.71c-32.11-18.51-65.09-35.36-98.29-51.8a77.56 77.56 0 0 0-24.52-7.64A81.25 81.25 0 0 1 178 410.13c-13.58-13.32-27.34-26.47-40.88-39.83a79.64 79.64 0 0 0-41.92-22.12 79.32 79.32 0 0 1-37.85-18.5A633.73 633.73 0 0 0 0 285.81v2.35a706.06 706.06 0 0 1 59 45.28 73.79 73.79 0 0 0 35.09 16.44zM76 362.31c17.35 3 32 10.86 44.82 22.83 15.83 14.8 32 29.2 48 43.87a68.17 68.17 0 0 0 39.34 18.23 62.52 62.52 0 0 1 19.84 5.92c24.47 11.68 49 23.28 73.38 35.07a146.92 146.92 0 0 1 15.56 8.77 138.56 138.56 0 0 1 37.84 36.09c4.46 6.22 10.2 10.24 17.84 11.42 7.83 1.21 14.7-.87 20.83-5.78a68.84 68.84 0 0 1 27.45-13.28c10.49-2.5 21.06-2.12 31.57-.72 36.45 4.85 66.32 21.59 89.22 50.39 24.39 30.68 44.69 63.94 61.8 99.17a63.16 63.16 0 0 1 6.63 27.75 52.74 52.74 0 0 0 14.15 36.56 41.39 41.39 0 0 1 9.05 16.4 48.37 48.37 0 0 1 1.59 16.21c-.76 15.71 9.15 34.13 28 41.18 2.32.87 4.64 1.76 7 2.59a27.46 27.46 0 0 1 12.09 8.21 29.47 29.47 0 0 0 47.07-1.94 33.89 33.89 0 0 1 11.82-10.38c9.59-5.21 19.08-10.6 28.75-15.65 22.42-11.72 46.31-17.77 71.62-16.7 22.74 1 44.83-1.52 66.43-8.9 13.76-4.7 27.78-8.61 41.6-13.13 15.41-5 20.27-22.29 10-34.83-1.16-1.4-2.39-2.74-3.54-4.15-19.59-23.93-29.84-51.38-29.58-82.3.29-34.07 9.33-65.95 26.2-95.57q9.58-16.81 19.3-33.54c23.15-39.85 31.13-82.5 23.6-128-4-24-13.55-45.55-29.42-64.1-9.62-11.24-21.83-15.15-36.15-11.24-13.79 3.76-25.45.68-35.13-9.85a26.4 26.4 0 0 0-11.49-7.53c-11.08-3.49-21.08-1.38-29.3 6.79-6.11 6.09-13.13 9.26-21.7 9.2-1.81 0-3.63.27-5.44.39-12.22.84-24.43 1.22-36.65-.31-43.26-5.41-78.72-25-106-58.92-13.48-16.74-26.09-34.18-39-51.37a37.69 37.69 0 0 1-7.89-22.59c-.17-17.08 7.35-29.95 22.43-38 11.66-6.23 23.77-11.62 35.37-18Q763.85 74.89 772.58 0H771a142.51 142.51 0 0 1-2.61 14.64c-10.19 43.84-35.66 76.06-75.49 96.9-11.13 5.82-22.46 11.28-33.65 17-24.66 12.58-31.8 42.36-15.34 64.5 12.34 16.59 24.57 33.28 37.48 49.42 31.11 38.88 71.67 59.7 121.52 61.72 9.88.4 19.82-.73 29.73-.92a31 31 0 0 0 22.17-9.45c11.31-11.2 27.56-10.91 38.42.59 10.18 10.79 22.31 14.2 36.54 10.28 13.91-3.83 25.43 0 34.76 10.79a124.13 124.13 0 0 1 16 23.85c10.68 20.38 14.78 42.39 15.5 65.07A182.75 182.75 0 0 1 972.36 501q-9.31 16.67-19.06 33.1a203.8 203.8 0 0 0-26.91 74.62c-2.19 14.61-3.15 29.28-1.11 44 3.64 26.28 14 49.56 31.81 69.27 10.5 11.65 5.43 29-9.35 33.15-13.84 3.88-27.56 8.23-41.16 12.86a170.21 170.21 0 0 1-63.47 8.7c-26.7-1.24-51.85 4.91-75.43 17.44-9.34 5-18.56 10.17-27.86 15.21A37.84 37.84 0 0 0 727.59 820c-11.7 15.46-31 16.36-44 2.06a31.37 31.37 0 0 0-13-8.83q-3.74-1.31-7.43-2.78a41.19 41.19 0 0 1-22-19.85 40.39 40.39 0 0 1-4.47-21.09c.65-12.69-3.39-23.66-11.9-33.14a49.57 49.57 0 0 1-12.89-34 64.94 64.94 0 0 0-6.51-28.29 542.81 542.81 0 0 0-60.36-97.74c-25.24-32.44-58.18-50.57-99.24-54.11-20.2-1.74-38.3 2.88-54.4 15.45a25.21 25.21 0 0 1-10.2 4.71c-10.46 2.09-18.76-1.82-25-10.41a142.62 142.62 0 0 0-54.55-45.75c-24.13-11.62-48.34-23.05-72.51-34.6a65.49 65.49 0 0 0-20.81-6.25c-14.83-1.7-27.49-7.79-38.43-17.86q-25.38-23.36-51-46.48a81.85 81.85 0 0 0-41.28-20.28 79.45 79.45 0 0 1-35-15.64A343 343 0 0 0 0 317v2.22a367.19 367.19 0 0 1 43.6 28.88A73.34 73.34 0 0 0 76 362.31zm41.63-63.66c27.61 18.86 55.43 37.41 83.18 56.06a53.59 53.59 0 0 1 13.31 12.52 51.22 51.22 0 0 0 32 20.24 154.77 154.77 0 0 1 34.3 11.41q40.1 18.53 80.22 37a229.29 229.29 0 0 0 64.89 19.45c19.67 2.71 39.39 5.06 59.08 7.63 30.22 3.95 55.55 17.33 74.89 40.81 28.1 34.11 55.67 68.65 83.24 103.2 14.14 17.72 27.79 35.84 41.62 53.81 7.73 10 17.74 15.57 30.52 16.07a38.51 38.51 0 0 1 25.48 10.77c12.72 11.85 27.57 15 44.17 10.12 7.93-2.34 15.84-4.77 23.74-7.21a36.09 36.09 0 0 1 12.66-1.53c18.72 1 32.33-14.88 29-33.29a196.67 196.67 0 0 1-3.17-23.09 257.08 257.08 0 0 1 12.48-97.85 260.89 260.89 0 0 1 23.5-51.34c4.59-7.69 6.38-15.87 4.59-24.76a33.56 33.56 0 0 0-10.21-18.33c-4.84-4.53-8.33-9.92-9.63-16.44a66.36 66.36 0 0 1-.95-10.84 35.65 35.65 0 0 0-32-34.23c-5.1-.49-10.2-1.09-15.29-1.74-41.35-5.28-80.14-18.3-116.85-38-43.12-23.11-81-52.63-111.89-90.7-12.95-16-26.64-31.21-40.5-46.36A412.39 412.39 0 0 1 456.64 35a87.83 87.83 0 0 1-2.85-35h-1.86a90 90 0 0 0 2.94 35.88q27.81 95.88 95.36 169.24c13 14.11 25.83 28.39 37.92 43.34 7.9 9.76 16.49 19 25.33 27.95C639.77 303 670.17 324 703.09 341.6a334.12 334.12 0 0 0 116 37.34c4.92.63 9.85 1.25 14.79 1.7a33.48 33.48 0 0 1 30.63 33.26c0 10.63 3.06 19.79 10.74 27.33 12.28 12 14 26.63 5.63 41.56a310.83 310.83 0 0 0-14.7 28.68c-20.18 46.71-27.07 95.16-18 145.54 2.9 16.09-10.34 31.14-26.67 30.13A40.49 40.49 0 0 0 806.9 689c-7.9 2.44-15.77 5-23.72 7.26-15.37 4.35-29.27 1.41-41-9.5A42.49 42.49 0 0 0 714 674.94c-10.47-.43-19.1-4.89-26-12.68-1.1-1.24-2.1-2.56-3.1-3.88-39.56-52.28-81-103-122.32-154-18.56-22.89-42.39-37.31-71.48-42.22-17.28-2.92-34.74-4.84-52.17-6.81-26.86-3-52.66-9.7-77.22-21.06Q322 416 282.36 397.69a164 164 0 0 0-36.14-12.13 48.89 48.89 0 0 1-30.34-19.21 57.87 57.87 0 0 0-14.4-13.52c-24.05-16.14-48-32.4-72.11-48.49A794.84 794.84 0 0 1 44.43 239C29 225.32 14.28 210.94 0 196.13V199a759.91 759.91 0 0 0 117.64 99.65zm-7.4-28.9c37.39 21.33 74.22 43.54 109.66 68a145.92 145.92 0 0 0 45.89 20.79 158.24 158.24 0 0 1 40.14 16.84c23.94 14.14 47.94 28.16 71.87 42.31a86.06 86.06 0 0 0 44.33 12.55 89.17 89.17 0 0 1 25.44 3.86 350.6 350.6 0 0 1 123.62 65.78c20.64 17 38.9 36.42 56.64 56.3 20.28 22.73 40.11 45.82 60.1 68.82a91.11 91.11 0 0 0 44.93 28.72 28.6 28.6 0 0 1 16.65 11.6c7.24 10.39 19.73 13.43 31.28 8.09 3.45-1.6 6.88-3.27 10.21-5.1a27.91 27.91 0 0 1 16.23-3.31c14.88 1.16 26.32-10 25.58-24.93-.71-14.2-1.5-28.41-2.74-42.58-3.3-37.58 3.45-73.09 21.18-106.45q13.4-25.23-3.06-48.56a34.75 34.75 0 0 1-5.83-13.56c-3.23-16.54-13.31-26.43-30-29.52A408.33 408.33 0 0 1 746 381c-28.88-10.6-55.7-25.26-82-41a348 348 0 0 1-101.26-91.74 368.39 368.39 0 0 0-32.57-38.08Q467.28 145.92 445.5 58.7A164.39 164.39 0 0 1 441.23 0h-2.15a159.54 159.54 0 0 0 2.72 50.33c12.84 61.07 41.6 114 84.91 158.91a439.23 439.23 0 0 1 36.11 42.22 347.83 347.83 0 0 0 54.46 57.59c25.68 21.76 54.58 38.51 84.14 54.21a369.17 369.17 0 0 0 51.92 22.33 403.25 403.25 0 0 0 58.91 15.71c14.83 2.76 24.47 11.31 27.8 26.11a50.4 50.4 0 0 0 7.79 18 40.06 40.06 0 0 1 6.79 30.65c-1 5.47-3.17 10.39-5.72 15.24-17 32.34-23.6 66.79-21 103.12 1.09 15.34 2.17 30.68 3.08 46a22.17 22.17 0 0 1-1.07 7.79c-3.1 9.79-12.12 15.79-22.65 14.92a29.44 29.44 0 0 0-17.21 3.47c-3.19 1.76-6.46 3.36-9.75 4.92-11 5.23-22.48 2.41-29.41-7.55a29.19 29.19 0 0 0-17-11.91A88.46 88.46 0 0 1 692 626.6c-3.72-4-7.2-8.21-10.81-12.31-25.42-28.77-50-58.26-76.64-86-41.17-42.83-89.6-74-146-92.76-11.18-3.72-22.45-7.17-34.35-7.1-17.23.1-32.84-4.78-47.54-13.61-23.12-13.89-46.47-27.39-69.7-41.1a159.54 159.54 0 0 0-40.6-17 142.28 142.28 0 0 1-45-20.32c-36.11-25-73.7-47.52-111.78-69.3a248.79 248.79 0 0 1-58-46.26C39.22 207.76 29 193.12 19 178.28Q9.54 164.2 0 150.16v3.41q12.58 18.56 25.15 37.13a252.83 252.83 0 0 0 85.09 79.05zm59.27-50.12a283.15 283.15 0 0 1 36.37 26.75c11.14 9.88 22 20.08 32.65 30.5 17.47 17.1 37.53 29.8 60.91 37A171.79 171.79 0 0 1 337 330.4c5.4 3.22 10.92 6.23 16.37 9.37a336.06 336.06 0 0 0 97.16 37.78c15.36 3.33 30.63 6.91 45.49 12.12 46.06 16.14 85 42.94 118.8 78 31.39 32.51 63.61 64.22 95.54 96.21 6.8 6.81 15 8.95 24.15 5.6 8.91-3.26 14-9.95 14.83-19.36.9-10.73 1-21.53-.85-32.2-5.51-31.46-21.38-56.25-47.85-74.19-14.66-9.93-29.58-19.51-43.79-30.06-22.86-17-45.17-34.65-67.79-51.94a701.93 701.93 0 0 1-138.45-140.17c-18.68-25.21-35.66-51.4-47.82-80.48-12.66-30.28-21.52-61.59-24-94.39A233.22 233.22 0 0 1 379.92 0h-2A246.83 246.83 0 0 0 379 64.88c6.59 45.14 22.81 87 47.54 125.35 27.39 42.48 59.6 81.06 95.7 116.39 22 21.58 45.68 41.27 70.08 60.08 25 19.3 49.42 39.45 75.61 57.21 11.23 7.62 22.55 15.1 33.7 22.83 18.8 13 32 30.43 39.93 51.89 6.09 16.49 7.3 33.58 6 50.9-.69 8.9-5.51 15.21-13.94 18.23s-15.61.8-21.86-5.27c-1.07-1-2.11-2.1-3.16-3.16-35-35.2-69.76-70.72-105.21-105.5-39.48-38.73-86.68-63.75-140.69-75.47-27.74-6-55-13.53-80.5-26-15.89-7.74-31.29-16.53-46.74-25.14a177 177 0 0 0-34.08-14.74 166.29 166.29 0 0 1-17.16-6.45c-18.65-8.09-34.42-20.25-48.54-34.73a383.23 383.23 0 0 0-68.87-55.86 324 324 0 0 1-71-61.7C79.89 135.4 64.1 116.88 48.25 98.41L0 42.17v2.93q46.07 53.71 92.14 107.43a344.66 344.66 0 0 0 77.37 67.1zM65.36 195c23.4 27.09 51.09 48.83 82.24 66.33a89.78 89.78 0 0 0 21.4 8.97 75.07 75.07 0 0 1 39.28 24.7q8.35 9.84 16.73 19.65c12.39 14.43 27.84 23.69 46.57 27.31a93 93 0 0 1 25.19 8.77c27.77 14.33 55.61 28.52 83.38 42.84a179.37 179.37 0 0 0 41.25 15.38c7.4 1.74 14.95 2.91 22.26 4.95Q547 442.71 618.16 523.15c24.65 27.89 48.93 56.1 73.19 84.34 13.55 15.78 30.37 25.28 51 27.73a24.69 24.69 0 0 1 15.91 8.1c8 8.6 19.82 10 29.85 4 12.87-7.79 19.37-22.31 16.84-38-1.34-8.32-2.83-16.62-4.34-24.91a130.34 130.34 0 0 1-.85-43.92 133 133 0 0 1 18-48.48c17.51-29 1.65-64.78-31.64-70.93-37.61-6.95-73.14-19.39-106-39-16.48-9.81-32.73-20-48.82-30.47a475.71 475.71 0 0 1-89.58-75.76c-16.7-18-31.31-37.62-46.14-57.1a429.07 429.07 0 0 1-71.21-141.88C417.08 51.68 413.3 26.21 415.65 0h-2.15a193.64 193.64 0 0 0 4.37 58.63c10.28 45.73 28.49 88.29 53.21 128.1 12.86 20.7 27.87 39.84 42.73 59.08a471.61 471.61 0 0 0 97.74 94.58c24.16 17.43 49.64 32.86 75.39 47.8 14 8.14 28.93 14.55 44.18 20.11 18.06 6.59 36.64 11.17 55.52 14.76a44.7 44.7 0 0 1 36.43 45 45.89 45.89 0 0 1-7.17 23.42c-15.32 25.11-21.94 52.31-18.64 81.61 1.33 11.81 3.6 23.52 5.65 35.24 2.75 15.7-3.33 30-16.21 37.53a21.38 21.38 0 0 1-15.26 2.75 19.77 19.77 0 0 1-11.51-6.36 25.23 25.23 0 0 0-17.6-9 63.22 63.22 0 0 1-11.17-2.19c-15-4-27.33-12.22-37.46-23.92q-36.37-42-72.86-84a358.2 358.2 0 0 0-122.71-91.54c-22.32-10.17-45.29-18.48-69.47-23.1a169.84 169.84 0 0 1-45.79-15.74q-42.17-21.58-84.28-43.26a97.71 97.71 0 0 0-26.59-9.38c-18.39-3.55-33.54-12.68-45.69-26.88-5.92-6.91-11.75-13.89-17.73-20.76-9.57-11-21.3-19-35.34-22.85-11.64-3.19-22.18-8.36-32.48-14.45a298.24 298.24 0 0 1-86.92-77.36c-3.39-4.48-6.8-9-10.54-13.17Q21.72 140.39 0 116.21v2.88c20.95 23.2 42.36 46 61.2 71 1.29 1.72 2.8 3.31 4.16 4.91zm1201.2 674.14a70.79 70.79 0 0 1-34.11-9.14 210.7 210.7 0 0 0-108.57-26.6c-17.37.43-34.72 1.38-52.08 1.83a42.87 42.87 0 0 0-25.74 9c-10.41 8-22.09 10.12-34.72 6.92a288.67 288.67 0 0 0-38.51-7.1c-25.15-2.85-50.26-2.51-75.14 2.07-17.71 3.26-35.33 7.17-52.82 11.47A76.19 76.19 0 0 0 793.93 900H796a75.08 75.08 0 0 1 50.32-40.81c10.93-2.62 21.92-5 32.86-7.58a270.27 270.27 0 0 1 129.73.94c14.46 3.66 27.45 1.73 39.32-7.48a37.81 37.81 0 0 1 22.57-7.88c12.73-.41 25.46-1.06 38.19-1.53 15.05-.57 30.11-.93 45.11 1a215 215 0 0 1 79.16 26 65.71 65.71 0 0 0 32.3 8.39 61.68 61.68 0 0 1 37.06 12.25q11.32 8.34 22.58 16.75h3.15q-12-9-24-17.88a63.14 63.14 0 0 0-37.79-13zm-151.21-234.56a128.77 128.77 0 0 0-13-2.3 25.58 25.58 0 0 0-21.93 43.28c6.48 6.48 13.26 12.69 20.11 18.78A26.74 26.74 0 0 0 1119 701a29 29 0 0 0 26.91-39.75c-5.55-14.1-15.91-23.02-30.56-26.67zm4.92 64.64c-7.83-.13-13.83-2.06-18.77-6.53-6.68-6-13.35-12.11-19.72-18.47a23.7 23.7 0 0 1 20.53-40.05c4.19.63 8.42 1.21 12.53 2.23 14 3.46 23.87 11.93 29.25 25.33 7.19 17.96-5.92 37.4-23.82 37.49zm188.3-99.91c-16.56 3.12-32 8.63-44.94 19.63a71 71 0 0 1-17.56 11 37.17 37.17 0 0 0-21.93 39.59c.83 5.5 2.76 10.87 4.47 16.2a52.27 52.27 0 0 1-49.82 68.48 213.48 213.48 0 0 1-52.15-6c-39.73-9.87-74-29.35-102-59.18-14.9-15.83-19.41-34.73-13-55.61a84.8 84.8 0 0 0 4-28.78 104.4 104.4 0 0 1 46.36-90.95c23.6-15.73 39.51-37.18 48.32-64.12 8-24.47 8.55-49.39 5.18-74.57a198 198 0 0 0-29-79.54 185 185 0 0 1-26.44-71.62c-3-20-5.73-39.93-8.64-59.89a244.5 244.5 0 0 1-2.39-33.09c-.24-25.59-10.93-46.35-31.51-61.69a124.41 124.41 0 0 0-49-21.93A80.27 80.27 0 0 1 911 0h-2c10.2 25.11 31.57 43 59.53 49.17a126.1 126.1 0 0 1 42.75 18c25.21 16.63 37.07 40.07 35.87 70.22a79.68 79.68 0 0 0 .59 13.85c3 22.11 6.5 44.17 9.37 66.3a200.16 200.16 0 0 0 28.93 81.11 174.65 174.65 0 0 1 10.67 19.59c16.5 36.09 23.14 73.78 16.12 113.12-6.08 34.11-23.07 61.62-52.36 81a101.21 101.21 0 0 0-26.07 24.92c-14.45 19.78-21.5 41.94-20.76 66.44.28 9.16-.27 18.08-3.21 26.9-7.74 23.21-2.89 43.87 14.13 61.26 38.89 39.71 86.38 60.76 141.81 63.86a104.56 104.56 0 0 0 22.25-.73c28.6-4.6 48.52-32.65 43.66-61.15-1-5.66-2.95-11.16-4.64-16.68-1.52-4.95-2.65-9.93-2.08-15.12 1.66-15.18 9.61-25.6 23.66-31.64a43.29 43.29 0 0 0 11.47-6.75c13.17-11.55 28.29-18.47 45.45-21.93 40.9-8.24 81.3-6.83 121.18 5.4 11.21 3.43 21.95 8.42 33.18 11.79 13.09 3.93 26.25 7.64 39.43 11.31v-1.77c-16.72-4.62-33.58-8.74-49.71-15.3-45.78-18.67-93.03-23.03-141.65-13.87zm96.77-88.54h-34.74c-24.16.07-48.26 1.46-72.31 3.74-10 1-20.09 1.69-30.18.11a88.59 88.59 0 0 1-74.66-90.79 286.41 286.41 0 0 0-12.14-95c-7.93-26.1-16.28-52.08-24.41-78.12a152.34 152.34 0 0 1-4.83-71.12c3.33-20.18 10.87-38.69 21.25-56.27 15.83-26.81 16.42-54.36 1.68-81.76-9.92-18.44-25.49-30.63-45.36-37.09q-6-1.94-11.65-4.43h-4.54a115.31 115.31 0 0 0 15.81 6.3 76.2 76.2 0 0 1 34.81 22.89c22.71 25.89 25.69 63.36 7.59 93.3-24.88 41.16-30.07 84.8-16 130.72 7.22 23.55 14.76 47 22.19 70.5a293.15 293.15 0 0 1 13.77 98.79 98.48 98.48 0 0 0 2.54 26.58c10.38 43 51.88 72.28 95.83 68 15.79-1.54 31.64-2.82 47.5-3.35 22.81-.76 45.64-.85 68.47-1a92.58 92.58 0 0 1 62 22.57 100.55 100.55 0 0 0 32 18.44v-1.92a95.84 95.84 0 0 1-29.93-17.38 97.15 97.15 0 0 0-64.69-23.72zm48.59-19.66a263.78 263.78 0 0 0-68.05-10.48 597.63 597.63 0 0 0-95.61 6c-20.11 2.81-37.81-2.51-52.47-16.66-13.51-13-19.31-29.25-18.92-47.9.51-24.21-1-48.34-5.85-72q-8-38.84-17.79-77.27c-7.49-29.33-9.28-58.68-3.24-88.4a186.91 186.91 0 0 1 21.32-56.4 84.61 84.61 0 0 0 11.8-42.5 77.59 77.59 0 0 1 3.21-23c2.57-8.2 5.33-16.34 8.09-24.48a87.47 87.47 0 0 0 4.76-23.24A53.09 53.09 0 0 0 1240 0h-2c2.83 11.69 1.12 23.17-2.46 34.45-2.55 8-5.61 15.91-7.88 24a142.17 142.17 0 0 0-3.88 19.38c-.82 6-.53 12.23-1.29 18.29-1.41 11.12-5.44 21.36-10.93 31.15-23.91 42.59-31 87.82-20.49 135.57 3.76 17.1 8.25 34 12.53 51 9.31 37.07 14.42 74.63 13.5 112.91a52.13 52.13 0 0 0 .73 8.38c4.25 30.57 30.84 54 61.75 53.94 7.24 0 14.5-1.16 21.72-2 19.26-2.34 38.57-3.7 57.95-4.45 30.81-1.19 61.21 1.14 91.05 9.38a70.58 70.58 0 0 1 29.42 15.83 60.82 60.82 0 0 0 20.28 12.25V518a66.16 66.16 0 0 1-20.58-13 63.75 63.75 0 0 0-25.48-13.9zm-43.39 5.19c-17-.59-34.06-.53-51.08 0-18.17.52-36.3 1.9-54.46 2.88-9.56.52-19.18 1.86-28.68 1.34a73.66 73.66 0 0 1-69.81-73.35 376.8 376.8 0 0 0-15-104.28q-9.59-32.6-19.29-65.17a152.63 152.63 0 0 1-6.22-32.6 158.84 158.84 0 0 1 21.08-92.45 202 202 0 0 0 12.41-26.46c7.1-18.08 9.53-37.14 9.85-56.43.33-19.93-7.24-37.41-20.31-49.73h-2.79a64 64 0 0 1 20.62 39.24c1.74 12.6.08 25.13-1.75 37.56-2.95 20-10.22 38.54-20.23 56.14-21.65 38.06-26.76 78.51-15.67 120.8 4.86 18.55 10.5 36.91 16.27 55.2A409.77 409.77 0 0 1 1204.76 429c.41 42.09 37.37 75.87 79.36 73.54 13.37-.74 26.68-2.58 40-3 26.1-.92 52.22-1.42 78.34-1.73 25.29-.3 47.71 7.77 67 24.29a88.1 88.1 0 0 0 7.53 5.66 101.22 101.22 0 0 0 23.01 11.72v-2.12a111.91 111.91 0 0 1-32.16-19 92.82 92.82 0 0 0-57.29-22.07zM357.4 810c-15.71-16.44-35.13-22.68-57.62-20.91a90.39 90.39 0 0 1-22.24-.59c-39.35-6.77-66.23-29-80.35-66.43-4.15-11-7.43-22.3-11.79-33.19-17.08-42.61-48.13-67.6-94.13-72.46-20.46-2.16-39-8.55-55.48-20.77a98.62 98.62 0 0 0-22.44-12.61q-6.66-2.61-13.35-5.2v2q3.37 1.29 6.74 2.57a127.39 127.39 0 0 1 30 16.24c15.91 11.51 33.79 17.81 53.39 19.54a109 109 0 0 1 20 3.45c36.8 10.42 61 34.43 74.26 69.93 3.93 10.53 7.39 21.24 11.17 31.83 16.29 45.68 61.16 72 105.06 67.65a81.85 81.85 0 0 1 9.92-.3c32.48.75 60.23 26.71 62.87 59.07.77 9.39.67 18.85 1 28.27.26 7.29.38 14.58.66 21.87h2c-.62-14.36-.85-28.73-1.17-43.1-.4-17.86-6.01-33.77-18.5-46.86zm758.42-240.5a54.93 54.93 0 0 0-8.84 6.23 11.51 11.51 0 0 0 12.83 18.92 70.61 70.61 0 0 0 9-6 10.55 10.55 0 0 0 4.19-9 11.51 11.51 0 0 0-17.18-10.15zm14.7 13.71c-1.64 4.49-11.81 11-16.59 10.76a8.92 8.92 0 0 1-8.07-5.53c-1.62-3.55-1.56-7.36 1.33-10.05a44.78 44.78 0 0 1 10.7-7.67c6.28-3 13.28 2.09 13.19 9.83a14.23 14.23 0 0 1-.56 2.66zm219.53-12.05c-20.13 3.91-40.14 8.5-60.28 12.37a83.26 83.26 0 0 0-35.44 15.78c-11 8.38-23.84 12-37.69 11.76-3.47-.05-6.95-.33-10.42-.44-11.13-.37-19.79 6.65-20.79 17.65-.34 3.76.78 7.88 2.08 11.52 12.56 35.16-3.87 74.17-38.43 88.33-29.87 12.24-57.17 6.1-81.09-15.08-10.9-9.66-21.26-19.93-31.84-29.95-13.61-12.89-16.93-30.2-8.88-47.18a43.45 43.45 0 0 0 4.32-22.63c-.33-4-.79-7.9-1.25-11.85-2.43-20.9 3.56-39 18.42-53.89 4.62-4.62 10.25-8.34 15.77-11.93 41.83-27.25 65.72-65.66 70.18-115.3 3.31-36.79-3.45-72.23-18.91-105.87-10.47-22.76-19.18-46.19-24.94-70.56-4.46-18.82-7.63-37.94-11.6-56.88a106.5 106.5 0 0 1 .38-45.31 88.76 88.76 0 0 0-.86-42.32c-10.23-38.3-35.37-61.94-73-72.53-9.19-2.58-18.84-3.55-28.31-5-15.94-2.51-29.57-9.42-40.53-21.28l-.51-.57h-2.7a69.3 69.3 0 0 0 38.62 22.7c7.93 1.62 16 2.51 24 3.93 22.18 3.94 41.59 13.49 57 30 23.19 25 30.88 54.47 23.92 87.77a96.31 96.31 0 0 0-.92 36.5c1.7 9.78 3.56 19.53 5.26 29.31a418.48 418.48 0 0 0 31.87 103.61 214.25 214.25 0 0 1 19.92 98.32c-1.09 31.4-10.9 59.69-29.65 84.87a147.81 147.81 0 0 1-43 38.59q-23.67 14.24-30.86 41c-2.88 10.64-2.36 21.37-.72 32a47 47 0 0 1-4.27 28 40.55 40.55 0 0 0 8.67 46.67c11.3 10.95 22.59 21.92 34.37 32.33 19.89 17.59 43.14 24 69.21 18.51 35.91-7.51 60.47-42.17 55.71-78.6-.85-6.49-2.85-12.89-4.8-19.18-3.87-12.5 4.86-24.26 17.94-23.83q3.23.11 6.45.33a66.27 66.27 0 0 0 46.75-14.57 58.85 58.85 0 0 1 24.57-11.38c22-4.62 44-9.38 66.07-13.78 28.51-5.68 55.35-1 80.19 14.13a245.05 245.05 0 0 0 70 29v-1.93a240.51 240.51 0 0 1-68.81-28.62c-25.22-15.25-52.31-20.13-81.17-14.52zm54.26-27.16c-20.75-1.66-41.43 0-62 2.69-22 2.9-43.86 6.73-65.79 10.16a27.65 27.65 0 0 1-12.27-.62c-7.72-2.24-14.37.36-19.18 6.89-.29.4-.57.82-.86 1.22-7.89 10.78-18.41 17-31.81 17.83-4.94.31-9.92-.28-14.89-.29a44.8 44.8 0 0 0-42.5 59.78c1.26 3.58 2.92 7 4.3 10.58a42.92 42.92 0 0 1 1.57 27.75 43.49 43.49 0 0 1-70.14 21.68c-9-7.6-17.57-15.64-26.28-23.55-12.16-11-12.47-26.4-.84-38 8.29-8.22 9-18.4 2.13-27.74a27.24 27.24 0 0 1-3.65-6.43c-1.94-5.16-.76-10.06 1.79-14.78a108.25 108.25 0 0 1 41.72-42.89c22.61-13.17 38.6-32 47.78-56.51a184.92 184.92 0 0 0 11.73-62.17A288.55 288.55 0 0 0 1146 320.8c-7.1-18.55-14.68-36.91-21.51-55.55-16.93-46.21-14.47-91.57 6.92-135.86 3-6.25 6.58-12.24 9.9-18.35A53.25 53.25 0 0 0 1147 75c-3.21-17.16-12.84-29.91-28.17-38.24s-31-16.58-46.42-24.89Q1062.19 6.36 1052.78 0h-3.43a235.3 235.3 0 0 0 23.22 14.13c15.06 8 30.12 16 45.11 24.16 26.79 14.52 36.05 45.81 21.52 72.48-2.06 3.78-4.19 7.52-6.27 11.29a172.7 172.7 0 0 0-9.79 145.4c5.34 13.72 10.53 27.51 16.1 41.14 11.73 28.67 19.86 58.2 22.79 89.12 2.12 22.39 1.95 44.65-2.76 66.72-3 14.12-7 28-14 40.7a107 107 0 0 1-40.86 41.72 109.72 109.72 0 0 0-41.86 42.79c-4.66 8.44-4.3 16.32 1.62 24.08a21.67 21.67 0 0 1 3.85 7.91c1.66 7.11-1.11 12.76-6.27 17.77-11.45 11.12-11.39 28.1.14 38.9 9.07 8.5 18.28 16.84 27.72 24.92a45.2 45.2 0 0 0 52 4.65 44.62 44.62 0 0 0 21.85-47.3c-1.25-6.25-3.92-12.24-6.2-18.26a43 43 0 0 1 22.22-54.7c7.92-3.68 16.21-4.17 24.77-3.74a61.14 61.14 0 0 0 14.81-.76c11.57-2.29 20.53-8.78 27.28-18.45 4.61-6.6 10.53-8.71 18.18-6.41a24.88 24.88 0 0 0 11.29.59c15.37-2.43 30.76-4.8 46.11-7.37a425.8 425.8 0 0 1 70.72-6.16c29.18 0 55.48 8.83 78.35 27a138.51 138.51 0 0 0 29 17.55v-2.07a153.41 153.41 0 0 1-29.42-18.22 121.36 121.36 0 0 0-66.26-25.58zm-253.61 38.28c1.41-10.29-2.18-18.7-10.48-24.84s-17.75-7.15-27.06-2.63a258.47 258.47 0 0 0-25.81 14.38 24.42 24.42 0 0 0-4.9 37.15c8 8.53 17.9 13.75 29.07 13.66 17.92 0 32.83-11.06 37.33-27.15a79.07 79.07 0 0 0 1.85-10.57zm-35.11 35.81c-14.79.13-24.22-5-31.81-13.14a22.43 22.43 0 0 1 4.62-34.14 267.12 267.12 0 0 1 25.79-14.38c8.49-4.16 17.07-3.16 24.73 2.41s11.17 13.46 10 23a71.65 71.65 0 0 1-1.84 10.57c-4.41 15.28-18.54 25.68-31.49 25.67zm306.69-251.66c-11-2-22.16-3.53-33.19-5.56-33.15-6.1-54.22-25.55-63.27-58.1q-3.92-14.11-7.62-28.27-10.18-38.86 11.23-72.85c4.14-6.58 8.49-13 12.73-19.55a58.68 58.68 0 0 1 12.6-13.91q23.15-18.48 23.6-48.17a79.42 79.42 0 0 1 8.29-34.46c3.3-6.67 6.28-13.5 9.67-20.13a80 80 0 0 0 8.84-35.8 68 68 0 0 1 7-29.61h-2a73.85 73.85 0 0 0-7.05 31.57 69.53 69.53 0 0 1-7.21 30.16c-3.18 6.55-6.11 13.23-9.45 19.68a89.83 89.83 0 0 0-10.12 40.06c-.39 18.54-8.19 33.47-22.56 45a59.67 59.67 0 0 0-12.72 13.81c-4.72 7.19-9.58 14.3-14.07 21.64-13.15 21.46-17.13 44.61-11.53 69.16q4.18 18.39 9.81 36.41c9.12 29.14 28.87 47.14 58.4 54.29 5.6 1.36 11.36 2.08 17.06 3 9 1.45 17.88 3.48 26.9 4.09 26.71 1.78 50.4-14.49 59.05-40.07 2.75-8.15 5.23-16.39 7.68-24.63q3-10 5.64-20.08v-8.87c-4.72 17.59-9.67 35.14-15.08 52.52a56 56 0 0 1-62.63 38.66zm-13.55-38.5c-30-5.76-52.28-22.72-66.48-49.89-7.84-15-9.35-30.86-4.79-47.13a62.91 62.91 0 0 1 26.26-36.06 70.58 70.58 0 0 0 28.8-38.48 89.26 89.26 0 0 0 3.87-26.38c.06-18.74 5.62-35.65 15.79-51.3 6.74-10.37 13.4-20.86 19.18-31.77s13.28-19.92 24.1-26.18A38.86 38.86 0 0 0 1472.92 0h-2.07a41.9 41.9 0 0 1-18.6 20.53 49 49 0 0 0-19.93 20.85 295.37 295.37 0 0 1-20.55 34.42c-11.51 16.88-17.13 35.37-17.42 55.84-.37 26.48-11 47.55-33.31 62.88-26.78 18.39-35.51 53.6-21.25 82.85 11.55 23.68 30 39.88 54.74 48.79 12.65 4.56 25.65 6.25 38.94 3.52 25.36-5.2 43-19.91 53-43.78a374 374 0 0 0 13.55-38.6v-6.74a398.44 398.44 0 0 1-16 46.35c-12.49 29.69-43.89 47.04-75.29 41.01zm31.55 78.78c-24.78-3.3-49.49-7.11-74.24-10.59-8.85-1.25-17.71-2.85-26.61-3.17-24.37-.88-44.74-17.89-49.21-42-1-5.36-1.62-10.79-2.33-16.2-2.11-16.07-4.78-32.09-6.15-48.22-3.62-42.76 4.55-83.35 24.82-121.24 5.68-10.61 12.63-20.57 19.29-30.63 5.31-8 7.45-16.47 5.25-25.92a36.32 36.32 0 0 1-.93-5.36c-.7-9 2.56-16.37 8.54-23 14.37-15.88 19.89-34.56 15.81-55.58a67 67 0 0 1-.35-24.8h-2.11a64.44 64.44 0 0 0 .4 23.84c4.2 21.16-1 39.67-15.41 55.58-7.71 8.51-10.56 18.17-7.88 29.32 2.24 9.33.29 17.68-5.29 25.33-1.75 2.41-3.44 4.86-5.14 7.31a219.81 219.81 0 0 0-24.83 46.8c-12.79 33.34-17.52 67.78-13.51 103.27 2.15 19.06 4.72 38.07 7.42 57.06 3.37 23.69 20.29 41.25 43.66 45.48 4.7.85 9.59.54 14.33 1.22 29.67 4.2 59.38 8.16 89 12.92 29.34 4.72 54.2-10.06 65.24-32.46V371c-10.41 25.44-36.2 38.85-59.77 35.7zm-56.55-205.61a55.35 55.35 0 0 0 18.13-22.54c7.82-17.53 15.49-35.14 23.77-52.46 16.25-33.95 40.8-58 74.37-71V53a135.08 135.08 0 0 0-27.57 14.42c-22.36 15.18-38.43 35.58-49.64 60.07-7.23 15.8-14.53 31.57-21.41 47.53a63.66 63.66 0 0 1-20.29 25.75c-16.73 12.92-22.61 30.56-19.13 51.16 2.76 16.34 12.21 28.36 26.13 36.92 7.32 4.51 14.81 8.76 22.26 13 21.73 12.5 46.68 5.28 58.42-16.9a186.23 186.23 0 0 0 15.58-39.13 339.72 339.72 0 0 1 15.65-46.51v-4.56l-.5 1c-7.54 15.92-12.27 32.83-17 49.73a185 185 0 0 1-16.41 40.39c-10.17 18.29-32.46 25.6-50.93 16.28-10.16-5.13-19.77-11.38-29.53-17.29a40.59 40.59 0 0 1-6.54-5.3 51 51 0 0 1 4.64-78.47zm42.32 219.31c-18.06-2-36-5.29-53.95-8.13-10.93-1.73-21.66-3.94-33-2.24-28.07 4.23-53.63-15.51-57.46-43.64q-1.41-10.32-3.41-20.54c-3.44-17.54-6.38-35.14-7.15-53a291.24 291.24 0 0 1 34.6-151.4c6.78-12.56 9.9-25.9 8.33-40.15-1.6-14.5 2.92-26.57 13.38-36.75a56 56 0 0 0 9.73-12.4c5.88-10.47 6.29-21.72 3-33.17a66.42 66.42 0 0 1-2.62-19h-1.88c0 1 0 2 .11 3.08a117.86 117.86 0 0 0 3.22 19 42 42 0 0 1-.65 22.51c-2.39 7.61-7 13.75-12.76 19.19-10.62 9.94-15.07 22.35-13.51 36.74a66.8 66.8 0 0 1-7 38c-1.71 3.4-3.58 6.71-5.27 10.12a291.47 291.47 0 0 0-30.07 110.26 285.06 285.06 0 0 0 3 66.74q3.6 21.76 7.41 43.49c4.88 27.68 31.14 46.9 58.75 43a65.87 65.87 0 0 1 21.23 0c21.32 3.84 42.59 8 64.18 10.18 27.55 2.84 52.81-2.11 75.71-15.49v-2.18c-22.32 13.37-47.04 18.7-73.92 15.77zm-11.59 23.93c-13.35-1.25-26.7-2.81-40.08-3.25-28-.93-55.44 3.14-82.41 10.74-18.74 5.27-36-6.72-37.6-26-1-11.88-1.58-23.8-2.58-35.68a645.6 645.6 0 0 0-12.68-83.41A218.83 218.83 0 0 1 1265 146.83c11-18.33 17.85-38 19.66-59.35a57.28 57.28 0 0 1 12.69-31.73c9-11.27 12.35-24.36 10.25-38.72-.79-5.41-1.49-10.83-2.46-16.2 0-.28-.08-.55-.13-.82h-1.93c.62 4.33 1.6 8.61 2 13 .55 5.57 1.22 11.24.79 16.79-.77 10-4.91 18.8-11.29 26.56a49.36 49.36 0 0 0-11.3 27.1c-.32 3.3-.64 6.6-1.12 9.87-2.81 19.09-9.54 36.68-19.26 53.36q-43.91 75.42-25.53 160.91a651.33 651.33 0 0 1 12.5 82.44c1 12.38 1.68 24.79 2.71 37.16a30.41 30.41 0 0 0 21.59 26.47 33.79 33.79 0 0 0 19.57-.22 256 256 0 0 1 77-10.46c13.38.3 26.75 1.72 40.1 2.9 22.75 2 44.79 7.15 65.68 16.5 7.69 3.44 15.55 6.41 23.47 9.18v-2c-5.08-1.76-10.11-3.62-15-5.78-22.59-10.08-45.89-17.15-70.53-19.46zm54 40.8a146.32 146.32 0 0 0-35.39-12.85c-17.37-4.08-35.12-4.8-52.81-5.62a369 369 0 0 0-90.94 7.29 50.93 50.93 0 0 1-55.68-27.14 53.78 53.78 0 0 1-5.64-24.92 448.9 448.9 0 0 0-5.83-71.6c-3.12-19.79-8-39.17-12.82-58.58-8.1-32.6-9.16-65.35-2.47-98.32a221 221 0 0 1 23.49-63.47 104.56 104.56 0 0 0 13.56-54.19c-.34-12.56 3.05-23.8 10.86-33.72 4.78-6.08 8.3-13 9.09-20.65a138.27 138.27 0 0 0 .17-20.73V.01h-1.83l.3 2.31c1.92 15.14-1.2 28.77-10.88 41-6.9 8.71-9.8 19.09-9.48 30.18.58 20.7-4.7 39.77-14.63 57.92A217.44 217.44 0 0 0 1200.66 237c0 21.67 3.46 42.77 9 63.65 10.7 40.64 16.58 81.88 16.68 124 .07 33.33 30.91 57.73 63.74 51.15a380.53 380.53 0 0 1 66.09-7.45 474.42 474.42 0 0 1 48.67 1.85c12.1 1 24 2.58 35.68 6 15.81 4.71 30.89 10.79 43.62 21.83 4.17 3.62 9.37 6.27 14.46 8.57.48.22 1 .42 1.45.62v-2a69.58 69.58 0 0 1-17.93-11 79.53 79.53 0 0 0-13.64-9.09zm-81.75-56.93a358.06 358.06 0 0 0-86.16 3.89c-4.41.73-8.84 1.85-13.25 1.84-11 0-19.43-8.78-19.82-20.15-.36-10.26-.54-20.52-.68-30.78a290.51 290.51 0 0 0-6.12-56.16 266.62 266.62 0 0 1 32.7-193.55c6.3-10.39 8.17-21.46 6.21-33.37-2.12-12.88.35-24.85 8.74-35 12.06-14.64 17.15-31.14 14.67-49.93a80.63 80.63 0 0 1-.62-15h-1.79a93 93 0 0 0 .65 17.24c2.24 17.16-2.84 32.35-13.8 45.69a43.9 43.9 0 0 0-10.23 31.81c.2 3 .76 5.9 1.09 8.85 1.2 11-1.8 20.78-7.35 30.26q-52.17 89.23-32.52 190.78c3.41 17.58 6.11 35.2 6.38 53.14.18 11.92.52 23.83.83 35.74.38 14.35 11.76 24 25.86 22 7.7-1.12 15.38-2.4 23.08-3.44a364.73 364.73 0 0 1 80.33-1.47c21.61 1.87 43.15 4.66 64.79 6 13.42.83 26.88 1 40.34 1.17v-1.57c-22.81-.19-45.59-1.24-68.3-3.51-15.03-1.53-30-3.34-45.02-4.49zm.81 127.83c-16.13-.62-32.09 1.1-48 3.66-23 3.72-46 7.61-69.07 11.37-8.9 1.45-16.47 5.37-21.73 12.69-7.52 10.48-17.55 15.08-30.28 14.73-7.28-.2-14.6-.28-21.85.23a30.84 30.84 0 0 0-27.32 23.19c-2.09 8.08-.61 15.6 2.7 23.15 12.54 28.55-.22 61.49-29 73.31-22.79 9.38-43.93 5.08-62.51-10.8-10.7-9.14-20.6-19.2-31.25-28.4-12.56-10.85-17.46-29.13-8.77-45.47a37 37 0 0 0 3.74-23.12c-4-28.55 8.7-52.88 34.34-66.16 1-.54 2.09-1 3.1-1.58 46-25.66 70.25-64.81 71.11-117.45.63-38.28-6.89-75.34-20.73-111.07-7.35-19-14.85-37.89-22.1-56.9a171.16 171.16 0 0 1-6.46-103.42 173 173 0 0 1 17-43.28c5.23-9.45 7.3-19.52 5.49-30.18-2.64-15.56-11.1-27-25.12-34.3-22.18-11.52-44.32-23.12-66.62-34.41a231.18 231.18 0 0 0-23.2-10c-1.56-.59-3.1-1.2-4.62-1.83h-4.67q3.06 1.34 6.23 2.57a293.28 293.28 0 0 1 30.4 13.43c20.69 10.81 41.53 21.32 62.13 32.29 16 8.53 24 22.19 24.17 40.37.06 8.54-3.15 16.07-7 23.5q-37.13 71.11-9.17 146.36 9.37 25.11 19.38 50A315.47 315.47 0 0 1 1151 417.17c.65 19.44-1.74 38.32-9.07 56.41-12.67 31.26-34.4 54.08-64.42 69.37-26.16 13.32-39.12 38.31-35.15 67.35a38.61 38.61 0 0 1-4 23.53 36.51 36.51 0 0 0-4.14 15.71 37.38 37.38 0 0 0 12.45 29.7c10.33 9.56 20.77 19 31.11 28.56a63.79 63.79 0 0 0 34.85 16.58c27.86 4.11 55.2-12.82 63.45-39.73a55.91 55.91 0 0 0-2.87-41.6 29.64 29.64 0 0 1 25.57-42.69c7-.2 13.91-.3 20.86-.12 12.75.34 22.74-4.52 30.25-14.87 5.2-7.17 12.46-11.19 21.26-12.47 7.53-1.09 15.06-2.29 22.58-3.46 23.38-3.67 46.53-8.67 70.15-10.88 35.53-3.32 68.72 3.48 98.55 23.28a192.89 192.89 0 0 0 37.57 19v-2a219.55 219.55 0 0 1-39.29-20.34c-22.06-14.39-46.79-21.5-73.18-22.5zM444.17 811.89a235.94 235.94 0 0 1-3.38-71.67c1.18-11.18 2.94-22.31 4.68-33.42 2.18-13.94-5.07-27.18-18.11-31.71a33.42 33.42 0 0 0-11.67-1.67q-33 1-66 2.46c-8.26.36-16.51 1.06-24.74 1.84a62.53 62.53 0 0 1-42.73-11.3c-10.06-7-16.82-16.57-22.26-27.45-18.86-37.78-48.49-63.33-88.79-75.86a654.33 654.33 0 0 1-119.3-49.92A506 506 0 0 0 0 488.9v2.1c11.24 4.59 22.34 9.51 33.22 14.91 13.93 6.92 27.61 14.33 41.52 21.29 31 15.53 63.31 27.72 96.45 37.86a142.39 142.39 0 0 1 54.68 31.38c14.53 13.22 25.42 29 34.11 46.6 12.68 25.62 37.69 39.2 66 36.47 5.43-.52 10.87-1 16.31-1.32 11.07-.58 22.16-1 33.24-1.49 13.56-.54 27.14-.84 40.7-1.54a26.66 26.66 0 0 1 27.32 31.69c-1.14 5.84-1.88 11.77-2.8 17.66a246.36 246.36 0 0 0 1 84c4.07 21.55 6.8 43.14 6.38 65.11a102.53 102.53 0 0 0 1.33 18.79c.43 2.58.94 5.1 1.52 7.59h1.79a102.28 102.28 0 0 1-2.8-25.43 293.76 293.76 0 0 0-5.8-62.68zm28-45.87a524.89 524.89 0 0 1 0-61.09c.72-11.91 2-23.79 2.34-35.7.54-17.6-14.67-30-32-27A214.87 214.87 0 0 1 419 645c-22.47 1.42-45 2.46-67.44 3.81-13.16.79-25.76-1.23-37.66-6.92a72.58 72.58 0 0 1-36.9-39.26 75.53 75.53 0 0 0-36-39.53q-5.51-2.87-11.08-5.6c-26.3-12.94-54.08-21.44-82.65-27.62A96.64 96.64 0 0 1 98 502.63a100.24 100.24 0 0 0-29.45-20.82q-9.91-4.59-19.81-9.21L0 450v2.1q33.12 15.4 66.27 30.73A104.23 104.23 0 0 1 97 504.33q3.49 3.54 7.3 6.73c13.51 11.31 29.13 18 46.29 21.63a345.48 345.48 0 0 1 87.24 30.86c17.71 9.09 30.25 22.54 37.91 41 12.47 30 41.87 48 74.3 46.22 24.13-1.34 48.27-2.54 72.4-4a194.36 194.36 0 0 0 20.64-2.59c13.63-2.34 26.53 5.86 29.13 19.25.77 4 .41 8.25.16 12.36-.68 11.08-1.86 22.13-2.36 33.21-1.93 43.2.7 86.1 9.41 128.52 2.51 12.26 4 24.31 1.14 36.86A61.58 61.58 0 0 0 480 900h2a64.92 64.92 0 0 1 .8-27.7 56.67 56.67 0 0 0 .53-24.65A544.87 544.87 0 0 1 472.21 766zm19.63 39.84a97.12 97.12 0 0 1-8.67-33.5 249.93 249.93 0 0 1 3.49-62.84c4.06-21.23 3.48-42.17-3.47-62.76-5-14.68-19.42-22-34.13-17.31a43.09 43.09 0 0 1-13.65 2.08c-23.68-.2-47.35 0-71 1.87-6.93.56-13.87 1-20.82 1.31-22 1.05-47.11-13.26-55-40.46-5.18-17.78-16.07-30.34-32.56-38.59-29.87-15-60.88-26.76-93.39-34.44-25.12-5.93-46.95-17.52-65.34-35.71a121.47 121.47 0 0 0-37.44-24.88c-12.55-5.44-25.19-10.82-37.82-16.26l-22-9.5v2.07l58.86 25.39A124.86 124.86 0 0 1 97 487.89a131.08 131.08 0 0 0 62.23 34.37A428.35 428.35 0 0 1 258.11 559c14.21 7.42 23.51 19 28.24 34.34.83 2.68 1.66 5.38 2.75 8a57.5 57.5 0 0 0 55.48 35.34c11.24-.44 22.45-1.77 33.69-2.11 19.69-.61 39.39-.71 59.08-1.22a36.3 36.3 0 0 0 11.17-1.81 25.42 25.42 0 0 1 33.39 17.14 121 121 0 0 1 5.33 31.23 123 123 0 0 1-2 26.69C482 723.19 481 740 480.72 757c-.29 17.33 2.39 34 9.44 49.85 6.83 15.38 9.89 31.39 10.16 48.21a104.4 104.4 0 0 0 10.52 45h2.11a103.2 103.2 0 0 1-10.78-45.45c-.26-17.07-3.41-33.24-10.33-48.74zm105.41 81.91c-4.78 1.86-9.49 3.92-14.32 5.62A31.26 31.26 0 0 1 541.4 859a93.4 93.4 0 0 0-.39-30.64 101.45 101.45 0 0 0-9.79-28 104.5 104.5 0 0 1-11.55-45.32 109.51 109.51 0 0 1 5.44-36.64 106.84 106.84 0 0 0 4-48.57c-2.64-18.51-9.65-35.41-19.59-51.08-7.45-11.74-15.48-23.11-23.33-34.59a24.25 24.25 0 0 0-14.37-10c-7.89-2-15-.38-21.67 4.2a117.38 117.38 0 0 1-45.4 19.16c-16 3-32.26 2.87-48.49 2.5a16.3 16.3 0 0 1-2.95-.41c-19.67-4-33.4-15.37-40.89-34-5.92-14.73-15.92-25.44-30.5-31.66a639.23 639.23 0 0 0-68.89-25.35 255.53 255.53 0 0 1-84.33-43.22 219 219 0 0 0-47.66-28.4C67.55 431.27 53.7 426.24 39.95 421Q20 413.33 0 405.76v2c19.6 7.46 39.21 14.92 58.89 22.15a269.56 269.56 0 0 1 72 39.45 232.22 232.22 0 0 0 70.27 37.31c26.45 8.57 52.75 17.46 78.38 28.29 14.83 6.27 25.36 16.52 31.17 31.55a55.54 55.54 0 0 0 53.41 35.71c6.95-.24 13.93 0 20.85-.56a204.64 204.64 0 0 0 24.55-3.27c15.41-3.22 29.36-10 42.38-18.78 11.24-7.63 24.87-5.41 32.55 5.46 8.5 12 17 24.11 24.66 36.68 19 31.25 25 64.31 13.16 99.88-5.6 16.79-5.82 34.15-2.44 51.55a109.72 109.72 0 0 0 10.38 29.39 91 91 0 0 1 9.7 53.89c-.46 3.75-1 7.65-.51 11.34 3 22.42 24.61 34.94 45.83 26.77 4.94-1.9 9.81-4 14.78-5.79A55.46 55.46 0 0 1 656.59 900h2.72c-15.74-15.61-39.37-21.05-62.06-12.22zm-78.42-25.65a143.85 143.85 0 0 0-10.78-56.65 122.28 122.28 0 0 1-9.43-41.92c-.44-12.4-.56-24.82-.5-37.23a36 36 0 0 1 7.25-21.78c9.31-12.5 11-26.07 4.88-40.28-6.51-15-13.46-29.84-20.41-44.66a30.75 30.75 0 0 0-46.61-11.54 27.31 27.31 0 0 1-13.11 5.57 96 96 0 0 1-9.91.4c-23 .78-46 1-68.93 2.5-24.93 1.68-45.89-12-52.51-36.07-4.41-16-14.14-27.13-29-34.54a475.47 475.47 0 0 0-106.13-38.08 105.94 105.94 0 0 1-55.24-32.35 112.09 112.09 0 0 0-40.9-28.26c-15.33-6.21-30.62-12.5-45.93-18.75L0 419.71v2.07q32.57 13.33 65.18 26.55a116.09 116.09 0 0 1 42.57 29.27 105.58 105.58 0 0 0 54.93 32 467.1 467.1 0 0 1 108.41 39.2A48.44 48.44 0 0 1 295 574.88c1 2.45 1.57 5.05 2.31 7.59 6.52 22.47 27.74 37.67 51.06 36 25.43-1.81 50.9-2.45 76.38-2.58a34 34 0 0 0 19.93-6.45c15.34-10.78 34.3-6.24 43.11 10.27A415.11 415.11 0 0 1 509 666.19c5 13.09 3.52 25.34-4.78 36.63a40.38 40.38 0 0 0-8 24.57c0 7.78.07 15.56 0 23.34a146.14 146.14 0 0 0 11 58.1 112.51 112.51 0 0 1 8.59 34.54c.73 9.72.84 19.5 1 29.25a49.75 49.75 0 0 0 8.48 27.38h2.31a44.44 44.44 0 0 1-8-19.56 115.12 115.12 0 0 1-.77-18.31zm-94.68-66.86a183.23 183.23 0 0 1 .09-63.26 38.5 38.5 0 0 0-45.27-44.81q-17.8 3.3-35.55 6.92c-11.09 2.28-22.24 3.91-33.5 2-29.11-5-49.92-21-61.74-48.15a89.29 89.29 0 0 0-22.67-31.59 205.35 205.35 0 0 0-79.69-44.09c-27.58-8.13-54-19-78.52-34.09A256.51 256.51 0 0 0 0 509.17v2a261.94 261.94 0 0 1 65.71 28.23c8.22 4.93 16.68 9.5 25.21 13.86 18.34 9.38 37.8 15.84 57.43 21.84a204.53 204.53 0 0 1 70.34 37.9 98.57 98.57 0 0 1 28.77 37.95A79.16 79.16 0 0 0 326 698.42c11.32-.86 22.5-3.62 33.72-5.61 7.49-1.33 14.9-3.24 22.43-4.19 24.24-3.07 44.34 18.79 40.33 43.21a267.3 267.3 0 0 0-2.79 26.63c-.9 14.46 1.18 28.74 3.52 43 3.26 19.78 6.07 39.62 6.16 59.71.05 10.3.63 20.53 2.77 30.61q.89 4.19 2 8.26H436a163.68 163.68 0 0 1-4.43-32.18 583.17 583.17 0 0 0-7.42-72.59zm-27.38 26.47c-2.61-15.82-5.63-31.57-8.5-47.34-1.07-5.85-2.15-11.71-3.42-17.52-3.44-15.84-16.95-26.45-33.1-25.59-7.41.39-14.78 1.68-22.17 2.58-9 1.1-18 2.75-27.09 3.25-31.84 1.75-61.41-17.48-73.47-47.41-3.09-7.66-5.8-15.49-9.09-23.07-14.6-33.74-39.82-55-75.64-63.41-13.36-3.14-26.81-5.89-40.25-8.65a129 129 0 0 1-53.22-24.35A129.16 129.16 0 0 0 0 546.28v2a131.13 131.13 0 0 1 51.09 24.53 122.28 122.28 0 0 0 48.13 22.62c13.7 3.11 27.47 5.93 41.22 8.86q57.63 12.29 79.37 67c2.69 6.76 5.19 13.59 8 20.31 12 28.79 40.13 47.81 71.26 47.38 10.2-.14 20.38-2.06 30.56-3.2 7.72-.86 15.42-2.31 23.16-2.57a29.43 29.43 0 0 1 30.13 23.71c3.88 18.95 7.44 38 10.83 57 3.69 20.74 4.62 41.71 5.11 62.74a183.08 183.08 0 0 0 2 23.34h1.87a182.11 182.11 0 0 1-2.15-27.33 316.09 316.09 0 0 0-3.81-50.93zm17.48 13.74c-3.12-22.24-6.7-44.43-10.13-66.63-1.36-8.79-2.43-17.33-.68-26.47 3.65-19-10.55-35.21-29.94-35.31a84 84 0 0 0-14.84.92c-15.47 2.71-30.87 5.82-46.3 8.73-7.79 1.47-15.5 3.66-23.54 3.12-22.48-1.52-40.32-15.43-47.43-37-1.86-5.65-3.49-11.38-5.5-17q-20.79-57.8-79.93-74.79c-11.45-3.27-23-6.15-34.58-8.92-22.6-5.42-43.71-14.14-62.77-27.55a175.87 175.87 0 0 0-58.6-27v2a176.48 176.48 0 0 1 57.64 26.69 172.37 172.37 0 0 0 57 26c13.62 3.46 27.29 6.77 40.8 10.62q58.07 16.58 78.58 73.47c2.18 6.06 3.88 12.28 6 18.38 8.74 25.64 34 39.84 57.7 36.41 10-1.44 19.82-3.71 29.73-5.57 10.72-2 21.4-4.39 32.2-5.85 6.49-.88 13.35-1.29 19.76-.22 15.83 2.64 25.67 18.46 22.07 34.31-1 4.38-1.86 8.71-1.11 13.22q3.55 21.52 7.06 43c3 18.1 5.58 36.25 6.56 54.6.75 14 1.91 28 5.32 41.73.29 1.18.6 2.35.91 3.52h2a204.43 204.43 0 0 1-5.8-37.34c-.56-8.95-.88-18.07-2.14-27.06zM1264 889.33c-12.25-1.19-23.43-5.1-34.33-10.67a231.61 231.61 0 0 0-91.67-25.45c-14.85-.92-29.77-.77-44.67-1a56.93 56.93 0 0 0-35.27 11.41c-18.31 13.46-37.84 15.94-59.11 8-32.68-12.23-66.46-16.51-101-11.48-16.67 2.42-33.24 5.86-49.6 9.9a63.44 63.44 0 0 0-39.95 30h2.41a63 63 0 0 1 40.8-29c5.5-1.19 11-2.33 16.49-3.57 15.19-3.44 30.45-6.43 46-7.17a208.54 208.54 0 0 1 84.27 13.11c21.72 8.18 41.82 5.67 60.57-8.07a57 57 0 0 1 34.8-11.3c7 0 13.91.12 20.86.07a255.35 255.35 0 0 1 55.71 5.5 241 241 0 0 1 61.91 22.39 77.31 77.31 0 0 0 28.77 8.8 73 73 0 0 1 29.78 9.15h3.9l-1.22-.73a70.83 70.83 0 0 0-29.45-9.89zm129.18-177.74c-3.75 1.27-7.62 2.2-11.47 3.11-9.65 2.27-19.25 4.82-29 6.55-12.84 2.28-20 15.54-14 27.6 2.82 5.62 2.37 11.16-.79 16.55-1.75 3-3.56 6-5.08 9.08a28.2 28.2 0 0 0 10.16 36.17 134.93 134.93 0 0 1 13.06 9.74c8.34 7 16.49 14.28 24.7 21.46A378.5 378.5 0 0 1 1434.7 900h2.62a346.5 346.5 0 0 0-34.76-40.06c-14.68-14.5-30.48-27.88-45.91-41.6a99.52 99.52 0 0 0-12.28-9.13c-11.86-7.63-15.91-22.21-9.37-34.73a61 61 0 0 1 3.21-5.59c4.78-7.19 5.45-14.38 1.7-22.46-4.38-9.43 1-19.86 11-22.73 1.58-.46 3.22-.73 4.82-1.13 14.57-3.63 29.17-7.19 43.71-10.93 9.49-2.45 19.09-4.14 28.89-3.8 6.59.23 13.17 1 19.73 1.75q26 3 51.93 6.07v-1.94c-18.31-2.15-36.65-4.13-54.92-6.54-17.65-2.35-34.92-1.32-51.86 4.41zm70.13 33.71c-24.71.57-49.43 1.85-74.1 3.44-19.15 1.23-31 17.41-27.68 36.36a61.42 61.42 0 0 0 20.14 36.06c9.36 8.36 18.79 16.64 28.08 25.07a314.6 314.6 0 0 1 47.43 53.77h2.32a313.31 313.31 0 0 0-39.38-46.6c-12-11.76-24.93-22.65-37.42-33.94-10.27-9.28-16.32-20.79-19.32-34.35-3.26-14.76 6.1-33.26 26.4-34.59 17.6-1.16 35.22-2.66 52.84-3 19.13-.35 38.26-.43 57.39-.46V745c-12.23 0-24.45 0-36.66.3zm-106.01-57.4c-7.28 3.82-14.61 6.73-22.86 7.7-19.07 2.24-33 20.28-30.27 39.82.79 5.62 1 11.3-1 16.72-4.77 13.05-9.72 26-14.57 39.06a24.4 24.4 0 0 0-1.16 3.79c-2 10.38 3.51 18.93 14.38 22.12a142.49 142.49 0 0 1 55.27 30.41q20.25 18 40.26 36.28a204.8 204.8 0 0 1 15.92 16.2h2.73q-4.32-4.86-9.05-9.4c-17.15-16.34-34.81-32.16-52.58-47.83-11.14-9.82-24-17.07-37.83-22.54-5.07-2-10.31-3.58-15.49-5.31-10.55-3.51-15-14-10.24-24a82.24 82.24 0 0 0 3.33-7.74c3.22-8.87 6.18-17.84 9.56-26.65a43.65 43.65 0 0 0 2.46-21 37.3 37.3 0 0 1-.23-7.91c1.61-15.85 12.6-27.79 28.39-30.08a74.63 74.63 0 0 0 24.26-8.19c23.34-12.23 48.17-16.47 74.16-11.62 14.15 2.64 28.11 6.23 42.15 9.47q12.57 2.9 25.13 5.85v-1.95q-29.41-6.89-58.82-13.75c-29.26-6.75-57.3-3.43-83.9 10.55zm-95.07 158.91a128.5 128.5 0 0 1-44.09-14.27 135.14 135.14 0 0 0-66.3-16.32c-28.3.27-56.59 1.2-84.89 1.71-10.48.19-19.83 3.14-28 9.88a34.89 34.89 0 0 1-13.63 6.9 40.53 40.53 0 0 1-22.49-.77 215.46 215.46 0 0 0-94.74-7.29c-11 1.59-21.8 3.93-32.67 6.09q-34.31 6.81-68.58 13.81c-16.92 3.46-28.86 15.8-30.62 32.83q-1.07 10.31-2.06 20.63h1.72q1.05-10.26 2.21-20.5c1.82-15.85 13.1-27.84 28.64-31 26.41-5.4 52.87-10.58 79.28-16 13-2.65 26-5.11 39.23-5.85a223.94 223.94 0 0 1 78.43 9.46c13.17 4 25.67 1.79 36.54-6.89 8.15-6.49 17.28-9.29 27.58-9.46 25.49-.42 51-1.2 76.45-1.57a197.79 197.79 0 0 1 24.77 1c18.63 2.07 36 8.14 52.48 17.19a96 96 0 0 0 34.72 11.32 107.73 107.73 0 0 1 56.55 24.58c11.38 9.42 23.05 18.5 34.6 27.72h3q-21-17.23-42.5-33.83a94.89 94.89 0 0 0-45.63-19.37zM902 801.43c24.83-6.22 49.9-8.34 75.29-4.62 9.14 1.34 18.17 3.47 27.25 5.24a30.35 30.35 0 0 0 34.28-18.31c4.51-11.25 2.69-21.77-4.78-31.25-11.37-14.43-22.85-28.78-34.21-43.21a106.45 106.45 0 0 1-23.4-63.11c-.37-9.33 1.16-18.45 2.12-27.66A227.59 227.59 0 0 1 993.38 557c6.5-16.2 14.4-31.72 25-45.54 15.22-19.76 27.94-41 39.51-63 21.24-40.33 19.58-80-4.52-118.73-5.95-9.55-12.28-18.86-18.58-28.18-14.55-21.52-22.91-45.24-26.34-71-5.35-40.17-24.29-72.8-56.49-97.32-11.7-8.9-22.96-18.23-33.88-28.23-10.5-9.6-21.5-18.73-31.41-28.91Q854 42.53 844 0h-1.78c6.8 29.4 21.26 55.25 43.14 77.54 6.25 6.37 13 12.28 19.64 18.24 15.52 13.9 31 27.74 47.61 40.51 31 23.92 48.94 56 54.07 94.9 3.38 25.71 11.77 49.44 26.27 71 6.75 10 13.64 20 19.92 30.27 21.72 35.65 24.17 72.76 5.78 110.26a379.26 379.26 0 0 1-39.05 63.84 203.88 203.88 0 0 0-37.87 81.76 432 432 0 0 0-6.7 43.6 110 110 0 0 0 .38 24.25c2.42 21.27 11.13 39.94 24.59 56.55q16.73 20.63 33 41.65c8.91 11.47 8.39 26.6-1.18 36.88-8.19 8.78-18.2 11.38-29.85 8.35-31.15-8.08-62.54-8.9-93.84-1.46-38.76 9.21-77.42 18.9-116 28.76-18.17 4.65-33 14.86-45 29.35a48.64 48.64 0 0 0-9.81 18.7c-4.51 16.93-25.12 22.68-38.1 10.9-1.59-1.44-3.14-2.95-4.84-4.25q-15-11.45-30.06-22.8c-6.83-5.14-14.38-9-22.76-10.6a106 106 0 0 0-19.19-1.69c-15.09-.06-27.53-9-31.31-23.35a45.82 45.82 0 0 1-1.2-10.8c-.16-9.76 0-19.53-.07-29.29-.09-11.63-5-20.81-14.65-27.22-12.59-8.39-17.34-19.84-14.36-34.61 6.34-31.45 2.11-61.48-11.85-90.3-7.74-15.94-18.23-29.94-29.62-43.35-21.81-25.64-49.58-37.77-83.13-36.73-12.42.39-23.55 3.94-33.11 12.54-9 8.09-20.09 10.47-32 8.74-17.9-2.61-32.24-11.24-43.12-25.74a112.58 112.58 0 0 0-44.07-35.33q-18.51-8.44-37.05-16.8A148.8 148.8 0 0 0 214.76 484a141.68 141.68 0 0 1-54.34-23.25q-9.14-6.43-18.19-13c-28.9-20.9-59.21-39.52-91.61-54.42C33.87 385.69 16.95 378.34 0 371v2q7.93 3.39 15.87 6.74a642.8 642.8 0 0 1 85 42.8c19.54 11.86 38.09 25.17 56.64 38.49A140.65 140.65 0 0 0 212 485.31 176.84 176.84 0 0 1 252.78 499c8.51 4 17.07 8 25.75 11.69a117.82 117.82 0 0 1 49.41 38.69c8.38 11.2 19.65 18.58 33.09 22.51 17 5 32.66 3.1 46.26-9.37a35.33 35.33 0 0 1 19.66-8.81c32.43-4.27 60.79 4.69 84 27.72a185.26 185.26 0 0 1 35.3 48.32c9.81 19.52 15.28 40.09 15.55 62 .13 10.65-1.4 21.09-3.2 31.54-2.37 13.72 2.26 25 13.73 32.74 10.91 7.35 16 17.11 15.78 30.1-.18 9.6 0 19.2 0 28.8A33.08 33.08 0 0 0 623 848.26a62.31 62.31 0 0 1 42.07 13.46c8.24 6.38 16.63 12.59 24.91 18.92 2.49 1.91 5 3.86 7.27 6 14.82 13.8 37 7.39 42.22-12.28a38.4 38.4 0 0 1 6.36-13.36 86.79 86.79 0 0 1 50.22-33.33c35.31-8.72 70.63-17.41 105.95-26.24zm-3.3 74.25c-13.87 2.11-27.46 6-41.26 8.65A55.1 55.1 0 0 0 828.6 900h2.82a52.35 52.35 0 0 1 26-13.71c9.41-1.84 18.7-4.31 28-6.44a154.15 154.15 0 0 1 114 17.54c1.64 1 3.29 1.82 4.95 2.61h4.56a67.18 67.18 0 0 1-8.58-4.24c-31.57-18.37-65.5-25.59-101.69-20.08zM1117 869a149.6 149.6 0 0 0-16.87.18c-14.16 1.12-25.94 7.19-35.53 17.72a50.36 50.36 0 0 1-18.4 13.08h4.29a58.67 58.67 0 0 0 16.15-12.44 50.33 50.33 0 0 1 37.45-16.71 275.66 275.66 0 0 1 72.29 8.34 272.76 272.76 0 0 1 56.08 20.83h4c-4.54-2.31-9.09-4.59-13.72-6.68-33.63-15.22-68.96-23.02-105.74-24.32zm333-213.79c-35-7.11-69.4-5.36-103.3 6q-15.27 5.14-30.79 9.52c-24.4 6.86-38.33 29.71-32.68 54.46a47.13 47.13 0 0 1-.54 24c-3 10.33-5.77 20.7-8.83 31a28.52 28.52 0 0 1-3.6 8.09c-9.05 13.07-2.91 31 13.36 35.55 22.05 6.14 41.43 17.27 58.59 32.37 9.07 8 18.24 15.85 27.36 23.79a273.06 273.06 0 0 1 20.61 20h2.69q-3.71-3.94-7.61-7.73c-12.72-12.29-26.37-23.63-39.52-35.49a158.66 158.66 0 0 0-62.17-35c-14.64-4.32-19.86-19.13-11.82-32.11a31.6 31.6 0 0 0 3.59-7.57c3.35-11.42 6.52-22.9 9.65-34.38a40.16 40.16 0 0 0 .94-18.18 102.77 102.77 0 0 1-2-12.22c-1.33-20.5 11.81-38.65 31.68-44.43q16.66-4.86 33.15-10.28a190 190 0 0 1 94.55-6.61c9.6 1.74 19.17 3.73 28.83 5 9.31 1.27 18.63 2.43 28 3.56v-1.93q-5.68-.71-11.35-1.47c-13.08-1.72-26.08-3.32-38.87-5.92z" fill="#1e252b" opacity=".05"/></svg>